<svg xmlns="http://www.w3.org/2000/svg" viewBox="0 0 980 680" font-family="Helvetica, Arial, sans-serif">
  <rect x="0" y="0" width="980" height="680" fill="white"/>

  <!-- ═══ Panel a: Enhanced vs Baseline exact-match ═══ -->
  <text x="30" y="20" font-size="13" font-weight="bold" fill="#222">a</text>
  <text x="44" y="20" font-size="9" fill="#555">Exact-match rate: enhanced vs. baseline (47,700 trials per model per condition)</text>

  <!-- Y-axis grid -->
  <line x1="80" y1="280" x2="450" y2="280" stroke="#E8E8E8" stroke-width="0.4" stroke-dasharray="3,3"/>
  <text x="74" y="283" font-size="7" fill="#888" text-anchor="end">0</text>
  <line x1="80" y1="221" x2="450" y2="221" stroke="#E8E8E8" stroke-width="0.4" stroke-dasharray="3,3"/>
  <text x="74" y="224" font-size="7" fill="#888" text-anchor="end">25</text>
  <line x1="80" y1="162" x2="450" y2="162" stroke="#E8E8E8" stroke-width="0.4" stroke-dasharray="3,3"/>
  <text x="74" y="165" font-size="7" fill="#888" text-anchor="end">50</text>
  <line x1="80" y1="103" x2="450" y2="103" stroke="#E8E8E8" stroke-width="0.4" stroke-dasharray="3,3"/>
  <text x="74" y="106" font-size="7" fill="#888" text-anchor="end">75</text>
  <line x1="80" y1="44" x2="450" y2="44" stroke="#E8E8E8" stroke-width="0.4" stroke-dasharray="3,3"/>
  <text x="74" y="47" font-size="7" fill="#888" text-anchor="end">100</text>

  <!-- Axes -->
  <line x1="80" y1="44" x2="80" y2="280" stroke="#999" stroke-width="0.75"/>
  <line x1="80" y1="280" x2="450" y2="280" stroke="#999" stroke-width="0.75"/>
  <text x="35" y="162" font-size="8" fill="#555" text-anchor="middle" transform="rotate(-90,35,162)">Exact-match rate (%)</text>

  <!-- GPT-4o bars -->
  <rect x="100" y="103.5" width="42" height="176.5" rx="2" fill="#AAAAAA"/>
  <text x="121" y="99" font-size="7" fill="#888" text-anchor="middle">74.1%</text>
  <rect x="146" y="44.8" width="42" height="235.2" rx="2" fill="#2166AC"/>
  <text x="167" y="40" font-size="7" fill="#2166AC" text-anchor="middle" font-weight="bold">99.7%</text>
  <text x="144" y="296" font-size="7.5" fill="#333" text-anchor="middle">GPT-4o</text>
  <text x="144" y="306" font-size="6.5" fill="#2166AC" text-anchor="middle" font-weight="bold">+25.6 pp</text>

  <!-- Claude bars -->
  <rect x="220" y="126.4" width="42" height="153.6" rx="2" fill="#AAAAAA"/>
  <text x="241" y="122" font-size="7" fill="#888" text-anchor="middle">65.2%</text>
  <rect x="266" y="45.0" width="42" height="235.0" rx="2" fill="#D6604D"/>
  <text x="287" y="40" font-size="7" fill="#D6604D" text-anchor="middle" font-weight="bold">99.6%</text>
  <text x="264" y="296" font-size="7.5" fill="#333" text-anchor="middle">Claude 3.5</text>
  <text x="264" y="306" font-size="6.5" fill="#D6604D" text-anchor="middle" font-weight="bold">+34.4 pp</text>

  <!-- GPT-4o-mini bars -->
  <rect x="340" y="156.3" width="42" height="123.7" rx="2" fill="#AAAAAA"/>
  <text x="361" y="152" font-size="7" fill="#888" text-anchor="middle">52.4%</text>
  <rect x="386" y="45.2" width="42" height="234.8" rx="2" fill="#4DAF4A"/>
  <text x="407" y="40" font-size="7" fill="#4DAF4A" text-anchor="middle" font-weight="bold">99.5%</text>
  <text x="384" y="296" font-size="7.5" fill="#333" text-anchor="middle">GPT-4o-mini</text>
  <text x="384" y="306" font-size="6.5" fill="#4DAF4A" text-anchor="middle" font-weight="bold">+47.1 pp</text>

  <!-- Legend for panel a -->
  <rect x="110" y="318" width="8" height="7" rx="1" fill="#AAA"/>
  <text x="122" y="324" font-size="7" fill="#555">Baseline</text>
  <rect x="180" y="318" width="8" height="7" rx="1" fill="#2166AC"/>
  <text x="192" y="324" font-size="7" fill="#555">Enhanced (GPT-4o)</text>
  <rect x="295" y="318" width="8" height="7" rx="1" fill="#D6604D"/>
  <text x="307" y="324" font-size="7" fill="#555">Enhanced (Claude)</text>
  <rect x="400" y="318" width="8" height="7" rx="1" fill="#4DAF4A"/>
  <text x="412" y="324" font-size="7" fill="#555">Enhanced (mini)</text>

  <!-- ═══ Panel b: Improvement ═══ -->
  <text x="510" y="20" font-size="13" font-weight="bold" fill="#222">b</text>
  <text x="524" y="20" font-size="9" fill="#555">Improvement from grounding (Δ pp)</text>

  <!-- Grid for horizontal bars -->
  <line x1="620" y1="44" x2="620" y2="248" stroke="#E8E8E8" stroke-width="0.4" stroke-dasharray="3,3"/>
  <text x="620" y="262" font-size="7" fill="#888" text-anchor="middle">0</text>
  <line x1="696" y1="44" x2="696" y2="248" stroke="#E8E8E8" stroke-width="0.4" stroke-dasharray="3,3"/>
  <text x="696" y="262" font-size="7" fill="#888" text-anchor="middle">10</text>
  <line x1="772" y1="44" x2="772" y2="248" stroke="#E8E8E8" stroke-width="0.4" stroke-dasharray="3,3"/>
  <text x="772" y="262" font-size="7" fill="#888" text-anchor="middle">20</text>
  <line x1="848" y1="44" x2="848" y2="248" stroke="#E8E8E8" stroke-width="0.4" stroke-dasharray="3,3"/>
  <text x="848" y="262" font-size="7" fill="#888" text-anchor="middle">30</text>
  <line x1="924" y1="44" x2="924" y2="248" stroke="#E8E8E8" stroke-width="0.4" stroke-dasharray="3,3"/>
  <text x="924" y="262" font-size="7" fill="#888" text-anchor="middle">40</text>
  <line x1="960" y1="44" x2="960" y2="248" stroke="#E8E8E8" stroke-width="0.4" stroke-dasharray="3,3"/>
  <text x="960" y="262" font-size="7" fill="#888" text-anchor="middle">50</text>

  <!-- Axes -->
  <line x1="620" y1="44" x2="620" y2="248" stroke="#999" stroke-width="0.75"/>
  <line x1="620" y1="248" x2="960" y2="248" stroke="#999" stroke-width="0.75"/>
  <text x="790" y="276" font-size="8" fill="#555" text-anchor="middle">Percentage points (pp)</text>

  <!-- Bars: GPT-4o-mini biggest improvement -->
  <rect x="620" y="52" width="318.8" height="55" rx="2" fill="#4DAF4A"/>
  <text x="615" y="82" font-size="7.5" fill="#333" text-anchor="end">GPT-4o-mini</text>
  <text x="943" y="82" font-size="7.5" fill="#4DAF4A" font-weight="bold">+47.13 pp</text>

  <rect x="620" y="117" width="261.3" height="55" rx="2" fill="#D6604D"/>
  <text x="615" y="147" font-size="7.5" fill="#333" text-anchor="end">Claude 3.5</text>
  <text x="885" y="147" font-size="7.5" fill="#D6604D" font-weight="bold">+34.38 pp</text>

  <rect x="620" y="182" width="194.3" height="55" rx="2" fill="#2166AC"/>
  <text x="615" y="212" font-size="7.5" fill="#333" text-anchor="end">GPT-4o</text>
  <text x="818" y="212" font-size="7.5" fill="#2166AC" font-weight="bold">+25.57 pp</text>

  <text x="790" y="292" font-size="7" fill="#888" font-style="italic" text-anchor="middle">Improvement inversely proportional to baseline capability</text>

  <!-- ═══ Panel c: Enhanced error types ═══ -->
  <text x="30" y="360" font-size="13" font-weight="bold" fill="#222">c</text>
  <text x="44" y="360" font-size="9" fill="#555">Error types — enhanced mode (n = 47,700 per model)</text>

  <!-- Grid -->
  <line x1="120" y1="378" x2="120" y2="578" stroke="#E8E8E8" stroke-width="0.4" stroke-dasharray="3,3"/>
  <text x="120" y="590" font-size="7" fill="#888" text-anchor="middle">0</text>
  <line x1="196" y1="378" x2="196" y2="578" stroke="#E8E8E8" stroke-width="0.4" stroke-dasharray="3,3"/>
  <text x="196" y="590" font-size="7" fill="#888" text-anchor="middle">50</text>
  <line x1="272" y1="378" x2="272" y2="578" stroke="#E8E8E8" stroke-width="0.4" stroke-dasharray="3,3"/>
  <text x="272" y="590" font-size="7" fill="#888" text-anchor="middle">100</text>
  <line x1="348" y1="378" x2="348" y2="578" stroke="#E8E8E8" stroke-width="0.4" stroke-dasharray="3,3"/>
  <text x="348" y="590" font-size="7" fill="#888" text-anchor="middle">150</text>
  <line x1="424" y1="378" x2="424" y2="578" stroke="#E8E8E8" stroke-width="0.4" stroke-dasharray="3,3"/>
  <text x="424" y="590" font-size="7" fill="#888" text-anchor="middle">200</text>
  <line x1="476" y1="378" x2="476" y2="578" stroke="#E8E8E8" stroke-width="0.4" stroke-dasharray="3,3"/>
  <text x="476" y="590" font-size="7" fill="#888" text-anchor="middle">234</text>

  <!-- Axes -->
  <line x1="120" y1="378" x2="120" y2="578" stroke="#999" stroke-width="0.75"/>
  <line x1="120" y1="578" x2="476" y2="578" stroke="#999" stroke-width="0.75"/>
  <text x="298" y="604" font-size="8" fill="#555" text-anchor="middle">Error count</text>

  <!-- GPT-4o: 42 missing + 69 extra + 0 wrong + 48 reorder = 159 -->
  <rect x="120" y="385" width="63.8" height="55" rx="1" fill="#D7191C"/>
  <rect x="183.8" y="385" width="104.9" height="55" rx="1" fill="#FDAE61"/>
  <rect x="288.7" y="385" width="72.9" height="55" rx="1" fill="#313695"/>
  <text x="115" y="415" font-size="7.5" fill="#333" text-anchor="end">GPT-4o</text>
  <text x="367" y="415" font-size="7.5" fill="#333" font-weight="bold">159</text>

  <!-- Claude: 48+60+24+51 = 183 -->
  <rect x="120" y="450" width="72.9" height="55" rx="1" fill="#D7191C"/>
  <rect x="192.9" y="450" width="91.2" height="55" rx="1" fill="#FDAE61"/>
  <rect x="284.1" y="450" width="36.5" height="55" rx="1" fill="#74ADD1"/>
  <rect x="320.6" y="450" width="77.5" height="55" rx="1" fill="#313695"/>
  <text x="115" y="480" font-size="7.5" fill="#333" text-anchor="end">Claude 3.5</text>
  <text x="403" y="480" font-size="7.5" fill="#333" font-weight="bold">183</text>

  <!-- GPT-4o-mini: 99+39+39+57 = 234 -->
  <rect x="120" y="515" width="150.5" height="55" rx="1" fill="#D7191C"/>
  <rect x="270.5" y="515" width="59.3" height="55" rx="1" fill="#FDAE61"/>
  <rect x="329.8" y="515" width="59.3" height="55" rx="1" fill="#74ADD1"/>
  <rect x="389.1" y="515" width="86.6" height="55" rx="1" fill="#313695"/>
  <text x="115" y="545" font-size="7.5" fill="#333" text-anchor="end">GPT-4o-mini</text>
  <text x="481" y="545" font-size="7.5" fill="#333" font-weight="bold">234</text>

  <!-- ═══ Panel d: Baseline error types ═══ -->
  <text x="510" y="360" font-size="13" font-weight="bold" fill="#222">d</text>
  <text x="524" y="360" font-size="9" fill="#555">Error types — baseline mode (n = 47,700 per model)</text>

  <!-- Grid (0 to 25k) -->
  <line x1="610" y1="378" x2="610" y2="578" stroke="#E8E8E8" stroke-width="0.4" stroke-dasharray="3,3"/>
  <text x="610" y="590" font-size="7" fill="#888" text-anchor="middle">0</text>
  <line x1="686" y1="378" x2="686" y2="578" stroke="#E8E8E8" stroke-width="0.4" stroke-dasharray="3,3"/>
  <text x="686" y="590" font-size="7" fill="#888" text-anchor="middle">5k</text>
  <line x1="762" y1="378" x2="762" y2="578" stroke="#E8E8E8" stroke-width="0.4" stroke-dasharray="3,3"/>
  <text x="762" y="590" font-size="7" fill="#888" text-anchor="middle">10k</text>
  <line x1="838" y1="378" x2="838" y2="578" stroke="#E8E8E8" stroke-width="0.4" stroke-dasharray="3,3"/>
  <text x="838" y="590" font-size="7" fill="#888" text-anchor="middle">15k</text>
  <line x1="914" y1="378" x2="914" y2="578" stroke="#E8E8E8" stroke-width="0.4" stroke-dasharray="3,3"/>
  <text x="914" y="590" font-size="7" fill="#888" text-anchor="middle">20k</text>
  <line x1="960" y1="378" x2="960" y2="578" stroke="#E8E8E8" stroke-width="0.4" stroke-dasharray="3,3"/>
  <text x="960" y="590" font-size="7" fill="#888" text-anchor="middle">25k</text>

  <!-- Axes -->
  <line x1="610" y1="378" x2="610" y2="578" stroke="#999" stroke-width="0.75"/>
  <line x1="610" y1="578" x2="960" y2="578" stroke="#999" stroke-width="0.75"/>
  <text x="785" y="604" font-size="8" fill="#555" text-anchor="middle">Error count</text>

  <!-- GPT-4o baseline: 3257+3588+2131+3381 = 12,357 (scale: 1k = 15.2px; total 187.8) -->
  <rect x="610" y="385" width="49.5" height="55" rx="1" fill="#D7191C"/>
  <rect x="659.5" y="385" width="54.5" height="55" rx="1" fill="#FDAE61"/>
  <rect x="714.0" y="385" width="32.4" height="55" rx="1" fill="#74ADD1"/>
  <rect x="746.4" y="385" width="51.4" height="55" rx="1" fill="#313695"/>
  <text x="605" y="415" font-size="7.5" fill="#333" text-anchor="end">GPT-4o</text>
  <text x="802" y="415" font-size="7.5" fill="#333" font-weight="bold">12,357</text>

  <!-- Claude baseline: 4367+4813+2925+4475 = 16,580 -->
  <rect x="610" y="450" width="66.4" height="55" rx="1" fill="#D7191C"/>
  <rect x="676.4" y="450" width="73.2" height="55" rx="1" fill="#FDAE61"/>
  <rect x="749.6" y="450" width="44.5" height="55" rx="1" fill="#74ADD1"/>
  <rect x="794.1" y="450" width="68.0" height="55" rx="1" fill="#313695"/>
  <text x="605" y="480" font-size="7.5" fill="#333" text-anchor="end">Claude 3.5</text>
  <text x="867" y="480" font-size="7.5" fill="#333" font-weight="bold">16,580</text>

  <!-- GPT-4o-mini baseline: 5996+6594+3931+6196 = 22,717 -->
  <rect x="610" y="515" width="91.1" height="55" rx="1" fill="#D7191C"/>
  <rect x="701.1" y="515" width="100.2" height="55" rx="1" fill="#FDAE61"/>
  <rect x="801.3" y="515" width="59.8" height="55" rx="1" fill="#74ADD1"/>
  <rect x="861.1" y="515" width="94.2" height="55" rx="1" fill="#313695"/>
  <text x="605" y="545" font-size="7.5" fill="#333" text-anchor="end">GPT-4o-mini</text>
  <text x="960" y="545" font-size="7.5" fill="#333" font-weight="bold">22,717</text>

  <!-- Annotation -->
  <text x="785" y="625" font-size="8" fill="#CC3311" text-anchor="middle" font-weight="bold">78–97× more errors without documentation and skill grounding</text>

  <!-- Shared legend for error types -->
  <rect x="320" y="650" width="8" height="7" rx="1" fill="#D7191C"/>
  <text x="332" y="656" font-size="7" fill="#555">Missing flag</text>
  <rect x="420" y="650" width="8" height="7" rx="1" fill="#FDAE61"/>
  <text x="432" y="656" font-size="7" fill="#555">Extra flag</text>
  <rect x="520" y="650" width="8" height="7" rx="1" fill="#74ADD1"/>
  <text x="532" y="656" font-size="7" fill="#555">Wrong value</text>
  <rect x="620" y="650" width="8" height="7" rx="1" fill="#313695"/>
  <text x="632" y="656" font-size="7" fill="#555">Flag reorder</text>
</svg>
