<svg xmlns="http://www.w3.org/2000/svg" viewBox="0 0 1000 700" font-family="Helvetica, Arial, sans-serif">
  <rect x="0" y="0" width="1000" height="700" fill="white"/>
  <defs>
    <marker id="ah" markerWidth="8" markerHeight="6" refX="8" refY="3" orient="auto">
      <polygon points="0 0,8 3,0 6" fill="#555"/>
    </marker>
    <marker id="ad" markerWidth="6" markerHeight="8" refX="3" refY="8" orient="auto">
      <polygon points="0 0,6 0,3 8" fill="#999"/>
    </marker>
  </defs>
  <text x="12" y="20" font-size="16" font-weight="bold" fill="#222222">a</text>
  <text x="14" y="68" font-size="9" fill="#555555">Natural-language</text>
  <text x="14" y="79" font-size="9" fill="#555555">task input</text>
  <line x1="76" y1="72" x2="88" y2="72" stroke="#555555" stroke-width="1.2" marker-end="url(#ah)"/>
  <rect x="92" y="32" width="106" height="138" rx="5" fill="white" stroke="#CCCCCC" stroke-width="0.75"/>
  <rect x="92" y="32" width="106" height="4" rx="3" fill="#2166AC"/>
  <text x="145" y="48" font-size="9" font-weight="bold" fill="#2166AC" text-anchor="middle">Documentation</text>
  <text x="145" y="60" font-size="9" font-weight="bold" fill="#2166AC" text-anchor="middle">Resolution</text>
  <line x1="100" y1="68" x2="190" y2="68" stroke="#E0E0E0" stroke-width="0.5"/>
  <circle cx="106" cy="83" r="2" fill="#2166AC" opacity="0.5"/>
  <text x="112" y="87" font-size="8" fill="#222222">Local cache</text>
  <circle cx="106" cy="99" r="2" fill="#2166AC" opacity="0.5"/>
  <text x="112" y="103" font-size="8" fill="#222222">--help capture</text>
  <circle cx="106" cy="115" r="2" fill="#2166AC" opacity="0.5"/>
  <text x="112" y="119" font-size="8" fill="#222222">User docs</text>
  <circle cx="106" cy="131" r="2" fill="#2166AC" opacity="0.5"/>
  <text x="112" y="135" font-size="8" fill="#222222">Remote URLs</text>
  <line x1="100" y1="151" x2="190" y2="151" stroke="#E0E0E0" stroke-width="0.5"/>
  <text x="145" y="163" font-size="7" fill="#888888" font-style="italic" text-anchor="middle">SHA-256 hash</text>
  <line x1="200" y1="101" x2="206" y2="101" stroke="#555555" stroke-width="1" marker-end="url(#ah)"/>
  <rect x="208" y="32" width="106" height="138" rx="5" fill="white" stroke="#CCCCCC" stroke-width="0.75"/>
  <rect x="208" y="32" width="106" height="4" rx="3" fill="#D6604D"/>
  <text x="261" y="48" font-size="9" font-weight="bold" fill="#D6604D" text-anchor="middle">Skill</text>
  <text x="261" y="60" font-size="9" font-weight="bold" fill="#D6604D" text-anchor="middle">Loading</text>
  <line x1="216" y1="68" x2="306" y2="68" stroke="#E0E0E0" stroke-width="0.5"/>
  <circle cx="222" cy="83" r="2" fill="#D6604D" opacity="0.5"/>
  <text x="228" y="87" font-size="8" fill="#222222">User skills</text>
  <circle cx="222" cy="99" r="2" fill="#D6604D" opacity="0.5"/>
  <text x="228" y="103" font-size="8" fill="#222222">Community</text>
  <circle cx="222" cy="115" r="2" fill="#D6604D" opacity="0.5"/>
  <text x="228" y="119" font-size="8" fill="#222222">MCP server</text>
  <circle cx="222" cy="131" r="2" fill="#D6604D" opacity="0.5"/>
  <text x="228" y="135" font-size="8" fill="#222222">Built-in (159)</text>
  <line x1="216" y1="151" x2="306" y2="151" stroke="#E0E0E0" stroke-width="0.5"/>
  <text x="261" y="163" font-size="7" fill="#888888" font-style="italic" text-anchor="middle">Concepts · Pitfalls · Examples</text>
  <line x1="316" y1="101" x2="322" y2="101" stroke="#555555" stroke-width="1" marker-end="url(#ah)"/>
  <rect x="324" y="32" width="106" height="138" rx="5" fill="white" stroke="#CCCCCC" stroke-width="0.75"/>
  <rect x="324" y="32" width="106" height="4" rx="3" fill="#4DAF4A"/>
  <text x="377" y="48" font-size="9" font-weight="bold" fill="#4DAF4A" text-anchor="middle">LLM</text>
  <text x="377" y="60" font-size="9" font-weight="bold" fill="#4DAF4A" text-anchor="middle">Generation</text>
  <line x1="332" y1="68" x2="422" y2="68" stroke="#E0E0E0" stroke-width="0.5"/>
  <circle cx="338" cy="83" r="2" fill="#4DAF4A" opacity="0.5"/>
  <text x="344" y="87" font-size="8" fill="#222222">System prompt</text>
  <circle cx="338" cy="99" r="2" fill="#4DAF4A" opacity="0.5"/>
  <text x="344" y="103" font-size="8" fill="#222222">Docs + skills</text>
  <circle cx="338" cy="115" r="2" fill="#4DAF4A" opacity="0.5"/>
  <text x="344" y="119" font-size="8" fill="#222222">ARGS: format</text>
  <circle cx="338" cy="131" r="2" fill="#4DAF4A" opacity="0.5"/>
  <text x="344" y="135" font-size="8" fill="#222222">Retry logic</text>
  <line x1="332" y1="151" x2="422" y2="151" stroke="#E0E0E0" stroke-width="0.5"/>
  <text x="377" y="163" font-size="7" fill="#888888" font-style="italic" text-anchor="middle">Strict output contract</text>
  <line x1="432" y1="101" x2="438" y2="101" stroke="#555555" stroke-width="1" marker-end="url(#ah)"/>
  <rect x="440" y="32" width="106" height="138" rx="5" fill="white" stroke="#CCCCCC" stroke-width="0.75"/>
  <rect x="440" y="32" width="106" height="4" rx="3" fill="#7570B3"/>
  <text x="493" y="48" font-size="9" font-weight="bold" fill="#7570B3" text-anchor="middle">Execute</text>
  <text x="493" y="60" font-size="9" font-weight="bold" fill="#7570B3" text-anchor="middle">&amp; Verify</text>
  <line x1="448" y1="68" x2="538" y2="68" stroke="#E0E0E0" stroke-width="0.5"/>
  <circle cx="454" cy="83" r="2" fill="#7570B3" opacity="0.5"/>
  <text x="460" y="87" font-size="8" fill="#222222">Command exec</text>
  <circle cx="454" cy="99" r="2" fill="#7570B3" opacity="0.5"/>
  <text x="460" y="103" font-size="8" fill="#222222">Exit code check</text>
  <circle cx="454" cy="115" r="2" fill="#7570B3" opacity="0.5"/>
  <text x="460" y="119" font-size="8" fill="#222222">Output verify</text>
  <circle cx="454" cy="131" r="2" fill="#7570B3" opacity="0.5"/>
  <text x="460" y="135" font-size="8" fill="#222222">Provenance log</text>
  <line x1="448" y1="151" x2="538" y2="151" stroke="#E0E0E0" stroke-width="0.5"/>
  <text x="493" y="163" font-size="7" fill="#888888" font-style="italic" text-anchor="middle">JSONL history</text>
  <text x="145" y="29" font-size="8" fill="#888888" text-anchor="middle">(1)</text>
  <text x="261" y="29" font-size="8" fill="#888888" text-anchor="middle">(2)</text>
  <text x="377" y="29" font-size="8" fill="#888888" text-anchor="middle">(3)</text>
  <text x="493" y="29" font-size="8" fill="#888888" text-anchor="middle">(4)</text>
  <text x="324" y="184" font-size="7.5" fill="#888888" font-style="italic" text-anchor="middle">Docs grounding &#x2192; skill augmentation &#x2192; constrained generation &#x2192; auditable execution</text>
  <text x="565" y="20" font-size="16" font-weight="bold" fill="#222222">b</text>
  <rect x="720.0" y="32" width="110" height="38" rx="5" fill="white" stroke="#D6604D" stroke-width="1.50" opacity="1.0"/>
  <text x="775" y="47" font-size="9" font-weight="bold" fill="#D6604D" text-anchor="middle" opacity="1.0">User-defined skills</text>
  <text x="775" y="60" font-size="8" fill="#888888" text-anchor="middle" opacity="1.0">Highest priority</text>
  <line x1="775" y1="71" x2="775" y2="81" stroke="#888888" stroke-width="0.75" marker-end="url(#ad)"/>
  <text x="791" y="79" font-size="7" fill="#888888" font-style="italic">overrides</text>
  <rect x="705.0" y="82" width="140" height="38" rx="5" fill="white" stroke="#D6604D" stroke-width="1.25" opacity="0.85"/>
  <text x="775" y="97" font-size="9" font-weight="bold" fill="#D6604D" text-anchor="middle" opacity="0.85">Community skills</text>
  <text x="775" y="110" font-size="8" fill="#888888" text-anchor="middle" opacity="0.85">Shared repository</text>
  <line x1="775" y1="121" x2="775" y2="131" stroke="#888888" stroke-width="0.75" marker-end="url(#ad)"/>
  <text x="791" y="129" font-size="7" fill="#888888" font-style="italic">overrides</text>
  <rect x="692.5" y="132" width="165" height="38" rx="5" fill="white" stroke="#D6604D" stroke-width="1.00" opacity="0.7"/>
  <text x="775" y="147" font-size="9" font-weight="bold" fill="#D6604D" text-anchor="middle" opacity="0.7">MCP server skills</text>
  <text x="775" y="160" font-size="8" fill="#888888" text-anchor="middle" opacity="0.7">Organizational</text>
  <line x1="775" y1="171" x2="775" y2="181" stroke="#888888" stroke-width="0.75" marker-end="url(#ad)"/>
  <text x="791" y="179" font-size="7" fill="#888888" font-style="italic">overrides</text>
  <rect x="675.0" y="182" width="200" height="38" rx="5" fill="white" stroke="#D6604D" stroke-width="0.75" opacity="0.55"/>
  <text x="775" y="197" font-size="9" font-weight="bold" fill="#D6604D" text-anchor="middle" opacity="0.55">Built-in skills (159)</text>
  <text x="775" y="210" font-size="8" fill="#888888" text-anchor="middle" opacity="0.55">Compiled into binary</text>
  <text x="580" y="132" font-size="8" fill="#888888" font-style="italic" transform="rotate(-90,580,132)">&#x2190; Higher priority</text>
  <text x="12" y="218" font-size="16" font-weight="bold" fill="#222222">c</text>
  <line x1="165.0" y1="228" x2="165.0" y2="470" stroke="#E0E0E0" stroke-width="0.4" stroke-dasharray="3,3"/>
  <text x="165.0" y="484" font-size="9" fill="#888888" text-anchor="middle">0</text>
  <line x1="248.8" y1="228" x2="248.8" y2="470" stroke="#E0E0E0" stroke-width="0.4" stroke-dasharray="3,3"/>
  <text x="248.8" y="484" font-size="9" fill="#888888" text-anchor="middle">4</text>
  <line x1="332.5" y1="228" x2="332.5" y2="470" stroke="#E0E0E0" stroke-width="0.4" stroke-dasharray="3,3"/>
  <text x="332.5" y="484" font-size="9" fill="#888888" text-anchor="middle">8</text>
  <line x1="416.2" y1="228" x2="416.2" y2="470" stroke="#E0E0E0" stroke-width="0.4" stroke-dasharray="3,3"/>
  <text x="416.2" y="484" font-size="9" fill="#888888" text-anchor="middle">12</text>
  <line x1="500.0" y1="228" x2="500.0" y2="470" stroke="#E0E0E0" stroke-width="0.4" stroke-dasharray="3,3"/>
  <text x="500.0" y="484" font-size="9" fill="#888888" text-anchor="middle">16</text>
  <line x1="165" y1="228" x2="165" y2="470" stroke="#999" stroke-width="0.75"/>
  <line x1="165" y1="470" x2="500" y2="470" stroke="#999" stroke-width="0.75"/>
  <text x="332.5" y="498" font-size="10" fill="#555555" text-anchor="middle">Number of tools</text>
  <rect x="165.0" y="230.9" width="335.0" height="9.4" rx="2" fill="#2166AC" opacity="0.82"/>
  <text x="160.0" y="239.1" font-size="9" fill="#222222" text-anchor="end">Variant calling</text>
  <text x="505.0" y="239.1" font-size="9" fill="#2166AC" font-weight="bold">16</text>
  <rect x="165.0" y="246.0" width="251.2" height="9.4" rx="2" fill="#2166AC" opacity="0.82"/>
  <text x="160.0" y="254.2" font-size="9" fill="#222222" text-anchor="end">Quality control</text>
  <text x="421.2" y="254.2" font-size="9" fill="#2166AC" font-weight="bold">12</text>
  <rect x="165.0" y="261.1" width="230.3" height="9.4" rx="2" fill="#2166AC" opacity="0.82"/>
  <text x="160.0" y="269.3" font-size="9" fill="#222222" text-anchor="end">Assembly</text>
  <text x="400.3" y="269.3" font-size="9" fill="#2166AC" font-weight="bold">11</text>
  <rect x="165.0" y="276.2" width="209.4" height="9.4" rx="2" fill="#2166AC" opacity="0.82"/>
  <text x="160.0" y="284.4" font-size="9" fill="#222222" text-anchor="end">Metagenomics</text>
  <text x="379.4" y="284.4" font-size="9" fill="#2166AC" font-weight="bold">10</text>
  <rect x="165.0" y="291.4" width="188.4" height="9.4" rx="2" fill="#2166AC" opacity="0.82"/>
  <text x="160.0" y="299.6" font-size="9" fill="#222222" text-anchor="end">Alignment</text>
  <text x="358.4" y="299.6" font-size="9" fill="#2166AC" font-weight="bold">9</text>
  <rect x="165.0" y="306.5" width="167.5" height="9.4" rx="2" fill="#2166AC" opacity="0.82"/>
  <text x="160.0" y="314.7" font-size="9" fill="#222222" text-anchor="end">Epigenomics</text>
  <text x="337.5" y="314.7" font-size="9" fill="#2166AC" font-weight="bold">8</text>
  <rect x="165.0" y="321.6" width="167.5" height="9.4" rx="2" fill="#2166AC" opacity="0.82"/>
  <text x="160.0" y="329.8" font-size="9" fill="#222222" text-anchor="end">RNA-seq</text>
  <text x="337.5" y="329.8" font-size="9" fill="#2166AC" font-weight="bold">8</text>
  <rect x="165.0" y="336.7" width="125.6" height="9.4" rx="2" fill="#2166AC" opacity="0.82"/>
  <text x="160.0" y="344.9" font-size="9" fill="#222222" text-anchor="end">Annotation</text>
  <text x="295.6" y="344.9" font-size="9" fill="#2166AC" font-weight="bold">6</text>
  <rect x="165.0" y="351.9" width="125.6" height="9.4" rx="2" fill="#2166AC" opacity="0.82"/>
  <text x="160.0" y="360.1" font-size="9" fill="#222222" text-anchor="end">HPC</text>
  <text x="295.6" y="360.1" font-size="9" fill="#2166AC" font-weight="bold">6</text>
  <rect x="165.0" y="367.0" width="125.6" height="9.4" rx="2" fill="#2166AC" opacity="0.82"/>
  <text x="160.0" y="375.2" font-size="9" fill="#222222" text-anchor="end">Utilities</text>
  <text x="295.6" y="375.2" font-size="9" fill="#2166AC" font-weight="bold">6</text>
  <rect x="165.0" y="382.1" width="104.7" height="9.4" rx="2" fill="#2166AC" opacity="0.82"/>
  <text x="160.0" y="390.3" font-size="9" fill="#222222" text-anchor="end">Package management</text>
  <text x="274.7" y="390.3" font-size="9" fill="#2166AC" font-weight="bold">5</text>
  <rect x="165.0" y="397.2" width="104.7" height="9.4" rx="2" fill="#2166AC" opacity="0.82"/>
  <text x="160.0" y="405.4" font-size="9" fill="#222222" text-anchor="end">Single-cell</text>
  <text x="274.7" y="405.4" font-size="9" fill="#2166AC" font-weight="bold">5</text>
  <rect x="165.0" y="412.4" width="83.8" height="9.4" rx="2" fill="#2166AC" opacity="0.82"/>
  <text x="160.0" y="420.6" font-size="9" fill="#222222" text-anchor="end">Networking</text>
  <text x="253.8" y="420.6" font-size="9" fill="#2166AC" font-weight="bold">4</text>
  <rect x="165.0" y="427.5" width="83.8" height="9.4" rx="2" fill="#2166AC" opacity="0.82"/>
  <text x="160.0" y="435.7" font-size="9" fill="#222222" text-anchor="end">Phylogenetics</text>
  <text x="253.8" y="435.7" font-size="9" fill="#2166AC" font-weight="bold">4</text>
  <rect x="165.0" y="442.6" width="83.8" height="9.4" rx="2" fill="#2166AC" opacity="0.82"/>
  <text x="160.0" y="450.8" font-size="9" fill="#222222" text-anchor="end">Population genomics</text>
  <text x="253.8" y="450.8" font-size="9" fill="#2166AC" font-weight="bold">4</text>
  <rect x="165.0" y="457.7" width="942.2" height="9.4" rx="2" fill="#888888" opacity="0.82"/>
  <text x="160.0" y="465.9" font-size="9" fill="#222222" text-anchor="end">Other (29 categories)</text>
  <text x="1112.2" y="465.9" font-size="9" fill="#888888" font-weight="bold">45</text>
  <text x="565" y="218" font-size="16" font-weight="bold" fill="#222222">d</text>
  <text x="585" y="218" font-size="10" fill="#555555">Example provenance record (JSONL)</text>
  <rect x="570" y="232" width="410" height="215" rx="5" fill="#FAFAFA" stroke="#CCCCCC" stroke-width="0.75"/>
  <text y="249" font-size="8" font-family="'SF Mono', Menlo, Consolas, monospace">
    <tspan x="584" fill="#222222">{</tspan>
  </text>
  <text y="265" font-size="8" font-family="'SF Mono', Menlo, Consolas, monospace">
    <tspan x="584" fill="#2166AC">  "id"</tspan>
    <tspan x="615.2" fill="#222222">: "a3f7c2e1-89b4-4d6a-b3c1-..."</tspan>
  </text>
  <text y="281" font-size="8" font-family="'SF Mono', Menlo, Consolas, monospace">
    <tspan x="584" fill="#2166AC">  "timestamp"</tspan>
    <tspan x="651.6" fill="#222222">: "2024-11-15T10:23:41Z"</tspan>
  </text>
  <text y="297" font-size="8" font-family="'SF Mono', Menlo, Consolas, monospace">
    <tspan x="584" fill="#2166AC">  "tool"</tspan>
    <tspan x="625.6" fill="#222222">: "bwa"</tspan>
  </text>
  <text y="313" font-size="8" font-family="'SF Mono', Menlo, Consolas, monospace">
    <tspan x="584" fill="#2166AC">  "task"</tspan>
    <tspan x="625.6" fill="#222222">: "align paired-end reads to hg38"</tspan>
  </text>
  <text y="329" font-size="8" font-family="'SF Mono', Menlo, Consolas, monospace">
    <tspan x="584" fill="#2166AC">  "command"</tspan>
    <tspan x="641.2" fill="#222222">: "bwa mem -t 8 hg38.fa R1.fq R2.fq"</tspan>
  </text>
  <text y="345" font-size="8" font-family="'SF Mono', Menlo, Consolas, monospace">
    <tspan x="584" fill="#2166AC">  "exit_code"</tspan>
    <tspan x="651.6" fill="#B5651D">: 0</tspan>
  </text>
  <text y="361" font-size="8" font-family="'SF Mono', Menlo, Consolas, monospace">
    <tspan x="584" fill="#2166AC">  "doc_hash"</tspan>
    <tspan x="646.4" fill="#222222">: "sha256:8f3a1b2c..."</tspan>
  </text>
  <text y="377" font-size="8" font-family="'SF Mono', Menlo, Consolas, monospace">
    <tspan x="584" fill="#2166AC">  "skill"</tspan>
    <tspan x="630.8" fill="#222222">: "bwa (built-in v1.0)"</tspan>
  </text>
  <text y="393" font-size="8" font-family="'SF Mono', Menlo, Consolas, monospace">
    <tspan x="584" fill="#2166AC">  "model"</tspan>
    <tspan x="630.8" fill="#222222">: "gpt-4o-2024-08-06"</tspan>
  </text>
  <text y="409" font-size="8" font-family="'SF Mono', Menlo, Consolas, monospace">
    <tspan x="584" fill="#2166AC">  "tool_version"</tspan>
    <tspan x="667.2" fill="#222222">: "bwa 0.7.18-r1243-dirty"</tspan>
  </text>
  <text y="425" font-size="8" font-family="'SF Mono', Menlo, Consolas, monospace">
    <tspan x="584" fill="#222222">}</tspan>
  </text>
  <text x="775" y="463" font-size="8.5" fill="#888888" text-anchor="middle" font-style="italic">Each field enables exact reconstruction of the generation context.</text>
  <text x="580" y="479" font-size="8" font-family="'SF Mono', Menlo, Consolas, monospace" fill="#2166AC">doc_hash</text>
  <text x="643.2" y="479" font-size="8" fill="#888888">&#x2014; SHA-256 of tool documentation for version traceability</text>
  <text x="580" y="493" font-size="8" font-family="'SF Mono', Menlo, Consolas, monospace" fill="#2166AC">skill</text>
  <text x="627.0" y="493" font-size="8" fill="#888888">&#x2014; Skill source (built-in, user, community, or MCP)</text>
  <text x="580" y="507" font-size="8" font-family="'SF Mono', Menlo, Consolas, monospace" fill="#2166AC">model</text>
  <text x="627.0" y="507" font-size="8" fill="#888888">&#x2014; LLM model ID for generation reproducibility</text>
</svg>