<svg xmlns="http://www.w3.org/2000/svg" viewBox="0 0 1100 780" font-family="Helvetica, Arial, sans-serif">
  <rect x="0" y="0" width="1100" height="780" fill="white"/>
  <text x="36.00" y="35.00" font-size="13px" fill="#333333" text-anchor="start" font-weight="bold">a</text>
  <text x="54.00" y="35.00" font-size="9px" fill="#555555" text-anchor="start" font-weight="normal">Exact-match rate: enhanced vs. baseline</text>
  <line x1="90.00" y1="315.00" x2="510.00" y2="315.00" stroke="#E8E8E8" stroke-width="0.4" stroke-dasharray="3,3"/>
  <text x="84.00" y="318.00" font-size="7px" fill="#888888" text-anchor="end" font-weight="normal">0</text>
  <line x1="90.00" y1="248.75" x2="510.00" y2="248.75" stroke="#E8E8E8" stroke-width="0.4" stroke-dasharray="3,3"/>
  <text x="84.00" y="251.75" font-size="7px" fill="#888888" text-anchor="end" font-weight="normal">25</text>
  <line x1="90.00" y1="182.50" x2="510.00" y2="182.50" stroke="#E8E8E8" stroke-width="0.4" stroke-dasharray="3,3"/>
  <text x="84.00" y="185.50" font-size="7px" fill="#888888" text-anchor="end" font-weight="normal">50</text>
  <line x1="90.00" y1="116.25" x2="510.00" y2="116.25" stroke="#E8E8E8" stroke-width="0.4" stroke-dasharray="3,3"/>
  <text x="84.00" y="119.25" font-size="7px" fill="#888888" text-anchor="end" font-weight="normal">75</text>
  <line x1="90.00" y1="50.00" x2="510.00" y2="50.00" stroke="#E8E8E8" stroke-width="0.4" stroke-dasharray="3,3"/>
  <text x="84.00" y="53.00" font-size="7px" fill="#888888" text-anchor="end" font-weight="normal">100</text>
  <line x1="90.00" y1="50.00" x2="90.00" y2="315.00" stroke="#999999" stroke-width="0.75"/>
  <line x1="90.00" y1="315.00" x2="510.00" y2="315.00" stroke="#999999" stroke-width="0.75"/>
  <text x="40" y="182.5" font-size="8px" fill="#555555" text-anchor="middle" transform="rotate(-90,40,182.5)">Exact-match rate (%)</text>
  <rect x="109.00" y="118.66" width="49.00" height="196.34" rx="2" fill="#AAAAAA"/>
  <text x="133.50" y="114.66" font-size="7px" fill="#888888" text-anchor="middle" font-weight="normal">74.1%</text>
  <rect x="162.00" y="50.87" width="49.00" height="264.13" rx="2" fill="#2166AC"/>
  <text x="186.50" y="46.87" font-size="7px" fill="#2166AC" text-anchor="middle" font-weight="bold">99.7%</text>
  <text x="160.00" y="329.00" font-size="8px" fill="#333333" text-anchor="middle" font-weight="normal">GPT-4o</text>
  <text x="160.00" y="340.00" font-size="7px" fill="#2166AC" text-anchor="middle" font-weight="bold">+25.6 pp</text>
  <rect x="249.00" y="142.11" width="49.00" height="172.89" rx="2" fill="#AAAAAA"/>
  <text x="273.50" y="138.11" font-size="7px" fill="#888888" text-anchor="middle" font-weight="normal">65.2%</text>
  <rect x="302.00" y="51.01" width="49.00" height="263.99" rx="2" fill="#D6604D"/>
  <text x="326.50" y="47.01" font-size="7px" fill="#D6604D" text-anchor="middle" font-weight="bold">99.6%</text>
  <text x="300.00" y="329.00" font-size="8px" fill="#333333" text-anchor="middle" font-weight="normal">Claude 3.5</text>
  <text x="300.00" y="340.00" font-size="7px" fill="#D6604D" text-anchor="middle" font-weight="bold">+34.4 pp</text>
  <rect x="389.00" y="176.19" width="49.00" height="138.81" rx="2" fill="#AAAAAA"/>
  <text x="413.50" y="172.19" font-size="7px" fill="#888888" text-anchor="middle" font-weight="normal">52.4%</text>
  <rect x="442.00" y="51.30" width="49.00" height="263.70" rx="2" fill="#4DAF4A"/>
  <text x="466.50" y="47.30" font-size="7px" fill="#4DAF4A" text-anchor="middle" font-weight="bold">99.5%</text>
  <text x="440.00" y="329.00" font-size="8px" fill="#333333" text-anchor="middle" font-weight="normal">GPT-4o-mini</text>
  <text x="440.00" y="340.00" font-size="7px" fill="#4DAF4A" text-anchor="middle" font-weight="bold">+47.1 pp</text>
  <rect x="120.00" y="357.00" width="9.00" height="8.00" rx="1" fill="#AAAAAA"/>
  <text x="133.00" y="364.00" font-size="7.5px" fill="#555555" text-anchor="start" font-weight="normal">Baseline</text>
  <rect x="195.00" y="357.00" width="9.00" height="8.00" rx="1" fill="#2166AC"/>
  <text x="209.00" y="364.00" font-size="7.5px" fill="#555555" text-anchor="start" font-weight="normal">GPT-4o</text>
  <rect x="275.00" y="357.00" width="9.00" height="8.00" rx="1" fill="#D6604D"/>
  <text x="289.00" y="364.00" font-size="7.5px" fill="#555555" text-anchor="start" font-weight="normal">Claude 3.5 Sonnet</text>
  <rect x="420.00" y="357.00" width="9.00" height="8.00" rx="1" fill="#4DAF4A"/>
  <text x="434.00" y="364.00" font-size="7.5px" fill="#555555" text-anchor="start" font-weight="normal">GPT-4o-mini</text>
  <text x="566.00" y="35.00" font-size="13px" fill="#333333" text-anchor="start" font-weight="bold">b</text>
  <text x="584.00" y="35.00" font-size="9px" fill="#555555" text-anchor="start" font-weight="normal">Exact-match improvement by grounding (Δ pp)</text>
  <line x1="680.00" y1="58.00" x2="680.00" y2="295.00" stroke="#E8E8E8" stroke-width="0.4" stroke-dasharray="3,3"/>
  <text x="680.00" y="307.00" font-size="7px" fill="#888888" text-anchor="middle" font-weight="normal">0</text>
  <line x1="754.00" y1="58.00" x2="754.00" y2="295.00" stroke="#E8E8E8" stroke-width="0.4" stroke-dasharray="3,3"/>
  <text x="754.00" y="307.00" font-size="7px" fill="#888888" text-anchor="middle" font-weight="normal">10</text>
  <line x1="828.00" y1="58.00" x2="828.00" y2="295.00" stroke="#E8E8E8" stroke-width="0.4" stroke-dasharray="3,3"/>
  <text x="828.00" y="307.00" font-size="7px" fill="#888888" text-anchor="middle" font-weight="normal">20</text>
  <line x1="902.00" y1="58.00" x2="902.00" y2="295.00" stroke="#E8E8E8" stroke-width="0.4" stroke-dasharray="3,3"/>
  <text x="902.00" y="307.00" font-size="7px" fill="#888888" text-anchor="middle" font-weight="normal">30</text>
  <line x1="976.00" y1="58.00" x2="976.00" y2="295.00" stroke="#E8E8E8" stroke-width="0.4" stroke-dasharray="3,3"/>
  <text x="976.00" y="307.00" font-size="7px" fill="#888888" text-anchor="middle" font-weight="normal">40</text>
  <line x1="1050.00" y1="58.00" x2="1050.00" y2="295.00" stroke="#E8E8E8" stroke-width="0.4" stroke-dasharray="3,3"/>
  <text x="1050.00" y="307.00" font-size="7px" fill="#888888" text-anchor="middle" font-weight="normal">50</text>
  <line x1="680.00" y1="58.00" x2="680.00" y2="295.00" stroke="#999999" stroke-width="0.75"/>
  <line x1="680.00" y1="295.00" x2="1050.00" y2="295.00" stroke="#999999" stroke-width="0.75"/>
  <text x="865.00" y="319.00" font-size="8px" fill="#555555" text-anchor="middle" font-weight="normal">Percentage points (pp)</text>
  <rect x="680.00" y="58.00" width="348.76" height="72.33" rx="2" fill="#4DAF4A"/>
  <text x="675.00" y="97.17" font-size="8px" fill="#333333" text-anchor="end" font-weight="normal">GPT-4o-mini</text>
  <text x="1034.76" y="97.17" font-size="8px" fill="#4DAF4A" text-anchor="start" font-weight="bold">+47.13 pp</text>
  <rect x="680.00" y="140.33" width="254.41" height="72.33" rx="2" fill="#D6604D"/>
  <text x="675.00" y="179.50" font-size="8px" fill="#333333" text-anchor="end" font-weight="normal">Claude 3.5 Sonnet</text>
  <text x="940.41" y="179.50" font-size="8px" fill="#D6604D" text-anchor="start" font-weight="bold">+34.38 pp</text>
  <rect x="680.00" y="222.67" width="189.22" height="72.33" rx="2" fill="#2166AC"/>
  <text x="675.00" y="261.83" font-size="8px" fill="#333333" text-anchor="end" font-weight="normal">GPT-4o</text>
  <text x="875.22" y="261.83" font-size="8px" fill="#2166AC" text-anchor="start" font-weight="bold">+25.57 pp</text>
  <text x="865.00" y="335.00" font-size="8px" fill="#888888" text-anchor="middle" font-weight="normal" font-style="italic">Improvement largest for weakest baseline (GPT-4o-mini +47 pp)</text>
  <text x="36.00" y="415.00" font-size="13px" fill="#333333" text-anchor="start" font-weight="bold">c</text>
  <text x="54.00" y="415.00" font-size="9px" fill="#555555" text-anchor="start" font-weight="normal">Error types — enhanced mode (n = 47,700 per model)</text>
  <line x1="130.00" y1="435.00" x2="130.00" y2="685.00" stroke="#E8E8E8" stroke-width="0.4" stroke-dasharray="3,3"/>
  <text x="130.00" y="697.00" font-size="7px" fill="#888888" text-anchor="middle" font-weight="normal">0</text>
  <line x1="206.00" y1="435.00" x2="206.00" y2="685.00" stroke="#E8E8E8" stroke-width="0.4" stroke-dasharray="3,3"/>
  <text x="206.00" y="697.00" font-size="7px" fill="#888888" text-anchor="middle" font-weight="normal">50</text>
  <line x1="282.00" y1="435.00" x2="282.00" y2="685.00" stroke="#E8E8E8" stroke-width="0.4" stroke-dasharray="3,3"/>
  <text x="282.00" y="697.00" font-size="7px" fill="#888888" text-anchor="middle" font-weight="normal">100</text>
  <line x1="358.00" y1="435.00" x2="358.00" y2="685.00" stroke="#E8E8E8" stroke-width="0.4" stroke-dasharray="3,3"/>
  <text x="358.00" y="697.00" font-size="7px" fill="#888888" text-anchor="middle" font-weight="normal">150</text>
  <line x1="434.00" y1="435.00" x2="434.00" y2="685.00" stroke="#E8E8E8" stroke-width="0.4" stroke-dasharray="3,3"/>
  <text x="434.00" y="697.00" font-size="7px" fill="#888888" text-anchor="middle" font-weight="normal">200</text>
  <line x1="510.00" y1="435.00" x2="510.00" y2="685.00" stroke="#E8E8E8" stroke-width="0.4" stroke-dasharray="3,3"/>
  <text x="510.00" y="697.00" font-size="7px" fill="#888888" text-anchor="middle" font-weight="normal">250</text>
  <line x1="130.00" y1="435.00" x2="130.00" y2="685.00" stroke="#999999" stroke-width="0.75"/>
  <line x1="130.00" y1="685.00" x2="510.00" y2="685.00" stroke="#999999" stroke-width="0.75"/>
  <text x="320.00" y="709.00" font-size="8px" fill="#555555" text-anchor="middle" font-weight="normal">Error count</text>
  <rect x="130.00" y="435.00" width="63.84" height="75.33" rx="1" fill="#D7191C"/>
  <rect x="193.84" y="435.00" width="104.88" height="75.33" rx="1" fill="#FDAE61"/>
  <rect x="298.72" y="435.00" width="72.96" height="75.33" rx="1" fill="#313695"/>
  <text x="125.00" y="475.67" font-size="8px" fill="#333333" text-anchor="end" font-weight="normal">GPT-4o</text>
  <text x="376.68" y="475.67" font-size="8px" fill="#333333" text-anchor="start" font-weight="bold">159</text>
  <rect x="130.00" y="522.33" width="72.96" height="75.33" rx="1" fill="#D7191C"/>
  <rect x="202.96" y="522.33" width="91.20" height="75.33" rx="1" fill="#FDAE61"/>
  <rect x="294.16" y="522.33" width="36.48" height="75.33" rx="1" fill="#74ADD1"/>
  <rect x="330.64" y="522.33" width="77.52" height="75.33" rx="1" fill="#313695"/>
  <text x="125.00" y="563.00" font-size="8px" fill="#333333" text-anchor="end" font-weight="normal">Claude 3.5</text>
  <text x="413.16" y="563.00" font-size="8px" fill="#333333" text-anchor="start" font-weight="bold">183</text>
  <rect x="130.00" y="609.67" width="150.48" height="75.33" rx="1" fill="#D7191C"/>
  <rect x="280.48" y="609.67" width="59.28" height="75.33" rx="1" fill="#FDAE61"/>
  <rect x="339.76" y="609.67" width="59.28" height="75.33" rx="1" fill="#74ADD1"/>
  <rect x="399.04" y="609.67" width="86.64" height="75.33" rx="1" fill="#313695"/>
  <text x="125.00" y="650.33" font-size="8px" fill="#333333" text-anchor="end" font-weight="normal">GPT-4o-mini</text>
  <text x="490.68" y="650.33" font-size="8px" fill="#333333" text-anchor="start" font-weight="bold">234</text>
  <text x="566.00" y="415.00" font-size="13px" fill="#333333" text-anchor="start" font-weight="bold">d</text>
  <text x="584.00" y="415.00" font-size="9px" fill="#555555" text-anchor="start" font-weight="normal">Error types — baseline mode (n = 47,700 per model)</text>
  <line x1="670.00" y1="435.00" x2="670.00" y2="685.00" stroke="#E8E8E8" stroke-width="0.4" stroke-dasharray="3,3"/>
  <text x="670.00" y="697.00" font-size="7px" fill="#888888" text-anchor="middle" font-weight="normal">0</text>
  <line x1="746.00" y1="435.00" x2="746.00" y2="685.00" stroke="#E8E8E8" stroke-width="0.4" stroke-dasharray="3,3"/>
  <text x="746.00" y="697.00" font-size="7px" fill="#888888" text-anchor="middle" font-weight="normal">5k</text>
  <line x1="822.00" y1="435.00" x2="822.00" y2="685.00" stroke="#E8E8E8" stroke-width="0.4" stroke-dasharray="3,3"/>
  <text x="822.00" y="697.00" font-size="7px" fill="#888888" text-anchor="middle" font-weight="normal">10k</text>
  <line x1="898.00" y1="435.00" x2="898.00" y2="685.00" stroke="#E8E8E8" stroke-width="0.4" stroke-dasharray="3,3"/>
  <text x="898.00" y="697.00" font-size="7px" fill="#888888" text-anchor="middle" font-weight="normal">15k</text>
  <line x1="974.00" y1="435.00" x2="974.00" y2="685.00" stroke="#E8E8E8" stroke-width="0.4" stroke-dasharray="3,3"/>
  <text x="974.00" y="697.00" font-size="7px" fill="#888888" text-anchor="middle" font-weight="normal">20k</text>
  <line x1="1050.00" y1="435.00" x2="1050.00" y2="685.00" stroke="#E8E8E8" stroke-width="0.4" stroke-dasharray="3,3"/>
  <text x="1050.00" y="697.00" font-size="7px" fill="#888888" text-anchor="middle" font-weight="normal">25k</text>
  <line x1="670.00" y1="435.00" x2="670.00" y2="685.00" stroke="#999999" stroke-width="0.75"/>
  <line x1="670.00" y1="685.00" x2="1050.00" y2="685.00" stroke="#999999" stroke-width="0.75"/>
  <text x="860.00" y="709.00" font-size="8px" fill="#555555" text-anchor="middle" font-weight="normal">Error count</text>
  <rect x="670.00" y="435.00" width="49.51" height="75.33" rx="1" fill="#D7191C"/>
  <rect x="719.51" y="435.00" width="54.54" height="75.33" rx="1" fill="#FDAE61"/>
  <rect x="774.04" y="435.00" width="32.39" height="75.33" rx="1" fill="#74ADD1"/>
  <rect x="806.44" y="435.00" width="51.39" height="75.33" rx="1" fill="#313695"/>
  <text x="665.00" y="475.67" font-size="8px" fill="#333333" text-anchor="end" font-weight="normal">GPT-4o</text>
  <text x="862.83" y="475.67" font-size="8px" fill="#333333" text-anchor="start" font-weight="bold">12,357</text>
  <rect x="670.00" y="522.33" width="66.38" height="75.33" rx="1" fill="#D7191C"/>
  <rect x="736.38" y="522.33" width="73.16" height="75.33" rx="1" fill="#FDAE61"/>
  <rect x="809.54" y="522.33" width="44.46" height="75.33" rx="1" fill="#74ADD1"/>
  <rect x="854.00" y="522.33" width="68.02" height="75.33" rx="1" fill="#313695"/>
  <text x="665.00" y="563.00" font-size="8px" fill="#333333" text-anchor="end" font-weight="normal">Claude 3.5</text>
  <text x="927.02" y="563.00" font-size="8px" fill="#333333" text-anchor="start" font-weight="bold">16,580</text>
  <rect x="670.00" y="609.67" width="91.14" height="75.33" rx="1" fill="#D7191C"/>
  <rect x="761.14" y="609.67" width="100.23" height="75.33" rx="1" fill="#FDAE61"/>
  <rect x="861.37" y="609.67" width="59.75" height="75.33" rx="1" fill="#74ADD1"/>
  <rect x="921.12" y="609.67" width="94.18" height="75.33" rx="1" fill="#313695"/>
  <text x="665.00" y="650.33" font-size="8px" fill="#333333" text-anchor="end" font-weight="normal">GPT-4o-mini</text>
  <text x="1020.30" y="650.33" font-size="8px" fill="#333333" text-anchor="start" font-weight="bold">22,717</text>
  <text x="860.00" y="725.00" font-size="8px" fill="#CC3311" text-anchor="middle" font-weight="bold">78–97× more errors without documentation and skill grounding</text>
  <rect x="370.00" y="762.00" width="9.00" height="8.00" rx="1" fill="#D7191C"/>
  <text x="383.00" y="769.00" font-size="7.5px" fill="#555555" text-anchor="start" font-weight="normal">Missing flag</text>
  <rect x="495.00" y="762.00" width="9.00" height="8.00" rx="1" fill="#FDAE61"/>
  <text x="508.00" y="769.00" font-size="7.5px" fill="#555555" text-anchor="start" font-weight="normal">Extra flag</text>
  <rect x="620.00" y="762.00" width="9.00" height="8.00" rx="1" fill="#74ADD1"/>
  <text x="633.00" y="769.00" font-size="7.5px" fill="#555555" text-anchor="start" font-weight="normal">Wrong value</text>
  <rect x="745.00" y="762.00" width="9.00" height="8.00" rx="1" fill="#313695"/>
  <text x="758.00" y="769.00" font-size="7.5px" fill="#555555" text-anchor="start" font-weight="normal">Flag reorder</text>
</svg>