<svg xmlns="http://www.w3.org/2000/svg" viewBox="0 0 760 400" font-family="Helvetica, Arial, sans-serif">
  <rect x="0" y="0" width="760" height="400" fill="white"/>

  <!-- Y-axis grid (0, 25, 50, 75, 100) -->
  <line x1="65" y1="340" x2="720" y2="340" stroke="#E8E8E8" stroke-width="0.4" stroke-dasharray="3,3"/>
  <text x="58" y="343" font-size="8" fill="#888" text-anchor="end">0</text>
  <line x1="65" y1="264" x2="720" y2="264" stroke="#E8E8E8" stroke-width="0.4" stroke-dasharray="3,3"/>
  <text x="58" y="267" font-size="8" fill="#888" text-anchor="end">25</text>
  <line x1="65" y1="188" x2="720" y2="188" stroke="#E8E8E8" stroke-width="0.4" stroke-dasharray="3,3"/>
  <text x="58" y="191" font-size="8" fill="#888" text-anchor="end">50</text>
  <line x1="65" y1="112" x2="720" y2="112" stroke="#E8E8E8" stroke-width="0.4" stroke-dasharray="3,3"/>
  <text x="58" y="115" font-size="8" fill="#888" text-anchor="end">75</text>
  <line x1="65" y1="36" x2="720" y2="36" stroke="#E8E8E8" stroke-width="0.4" stroke-dasharray="3,3"/>
  <text x="58" y="39" font-size="8" fill="#888" text-anchor="end">100</text>

  <!-- Axes -->
  <line x1="65" y1="36" x2="65" y2="340" stroke="#999" stroke-width="0.75"/>
  <line x1="65" y1="340" x2="720" y2="340" stroke="#999" stroke-width="0.75"/>
  <text x="14" y="188" font-size="9" fill="#555" text-anchor="middle" transform="rotate(-90,14,188)">Exact-match rate (%)</text>

  <!-- Group positions: Baseline(147), Docs-only(310), Skills-only(473), Combined(636) -->
  <!-- Bar width: 40, gap: 4; 3 bars = 128px centered -->

  <!-- Baseline -->
  <text x="147" y="356" font-size="9" fill="#333" text-anchor="middle" font-weight="bold">Baseline</text>
  <!-- GPT-4o: 74.1% -->
  <rect x="84" y="114.7" width="40" height="225.3" rx="2" fill="#2166AC" opacity="0.85"/>
  <text x="104" y="110" font-size="7" fill="#2166AC" text-anchor="middle" font-weight="bold">74.1%</text>
  <!-- Claude: 65.2% -->
  <rect x="128" y="141.4" width="40" height="198.6" rx="2" fill="#D6604D" opacity="0.85"/>
  <text x="148" y="137" font-size="7" fill="#D6604D" text-anchor="middle" font-weight="bold">65.2%</text>
  <!-- mini: 52.4% -->
  <rect x="172" y="180.3" width="40" height="159.7" rx="2" fill="#4DAF4A" opacity="0.85"/>
  <text x="192" y="176" font-size="7" fill="#4DAF4A" text-anchor="middle" font-weight="bold">52.4%</text>

  <!-- Docs only -->
  <text x="310" y="356" font-size="9" fill="#333" text-anchor="middle" font-weight="bold">Docs only</text>
  <rect x="247" y="57.9" width="40" height="282.1" rx="2" fill="#2166AC" opacity="0.85"/>
  <text x="267" y="53" font-size="7" fill="#2166AC" text-anchor="middle" font-weight="bold">92.8%</text>
  <rect x="291" y="68.8" width="40" height="271.2" rx="2" fill="#D6604D" opacity="0.85"/>
  <text x="311" y="64" font-size="7" fill="#D6604D" text-anchor="middle" font-weight="bold">89.2%</text>
  <rect x="335" y="79.7" width="40" height="260.3" rx="2" fill="#4DAF4A" opacity="0.85"/>
  <text x="355" y="75" font-size="7" fill="#4DAF4A" text-anchor="middle" font-weight="bold">85.6%</text>

  <!-- Skills only -->
  <text x="473" y="356" font-size="9" fill="#333" text-anchor="middle" font-weight="bold">Skills only</text>
  <rect x="410" y="83.1" width="40" height="256.9" rx="2" fill="#2166AC" opacity="0.85"/>
  <text x="430" y="79" font-size="7" fill="#2166AC" text-anchor="middle" font-weight="bold">84.5%</text>
  <rect x="454" y="96.5" width="40" height="243.5" rx="2" fill="#D6604D" opacity="0.85"/>
  <text x="474" y="92" font-size="7" fill="#D6604D" text-anchor="middle" font-weight="bold">80.1%</text>
  <rect x="498" y="117.5" width="40" height="222.5" rx="2" fill="#4DAF4A" opacity="0.85"/>
  <text x="518" y="113" font-size="7" fill="#4DAF4A" text-anchor="middle" font-weight="bold">73.2%</text>

  <!-- Combined -->
  <text x="636" y="356" font-size="9" fill="#333" text-anchor="middle" font-weight="bold">Combined</text>
  <rect x="573" y="37.0" width="40" height="303.0" rx="2" fill="#2166AC" opacity="0.85"/>
  <text x="593" y="33" font-size="7" fill="#2166AC" text-anchor="middle" font-weight="bold">99.7%</text>
  <rect x="617" y="37.2" width="40" height="302.8" rx="2" fill="#D6604D" opacity="0.85"/>
  <text x="637" y="33" font-size="7" fill="#D6604D" text-anchor="middle" font-weight="bold">99.6%</text>
  <rect x="661" y="37.5" width="40" height="302.5" rx="2" fill="#4DAF4A" opacity="0.85"/>
  <text x="681" y="33" font-size="7" fill="#4DAF4A" text-anchor="middle" font-weight="bold">99.5%</text>

  <!-- Legend -->
  <rect x="240" y="376" width="9" height="7" rx="1" fill="#2166AC"/>
  <text x="253" y="382" font-size="8" fill="#555">GPT-4o</text>
  <rect x="340" y="376" width="9" height="7" rx="1" fill="#D6604D"/>
  <text x="353" y="382" font-size="8" fill="#555">Claude 3.5 Sonnet</text>
  <rect x="480" y="376" width="9" height="7" rx="1" fill="#4DAF4A"/>
  <text x="493" y="382" font-size="8" fill="#555">GPT-4o-mini</text>

  <!-- Note -->
  <text x="392" y="396" font-size="7" fill="#888" font-style="italic" text-anchor="middle">Docs-only and skills-only rates estimated from component ablation (see Methods).</text>
</svg>
