<svg xmlns="http://www.w3.org/2000/svg" viewBox="0 0 895 1004" font-family="Helvetica, Arial, sans-serif">
  <rect x="0" y="0" width="895" height="1004" fill="white"/>
  <line x1="165" y1="30" x2="165" y2="954" stroke="#E8E8E8" stroke-width="0.4" stroke-dasharray="3,3"/>
  <text x="165" y="968" font-size="9" fill="#888" text-anchor="middle">95%</text>
  <line x1="301" y1="30" x2="301" y2="954" stroke="#E8E8E8" stroke-width="0.4" stroke-dasharray="3,3"/>
  <text x="301" y="968" font-size="9" fill="#888" text-anchor="middle">96%</text>
  <line x1="437" y1="30" x2="437" y2="954" stroke="#E8E8E8" stroke-width="0.4" stroke-dasharray="3,3"/>
  <text x="437" y="968" font-size="9" fill="#888" text-anchor="middle">97%</text>
  <line x1="573" y1="30" x2="573" y2="954" stroke="#E8E8E8" stroke-width="0.4" stroke-dasharray="3,3"/>
  <text x="573" y="968" font-size="9" fill="#888" text-anchor="middle">98%</text>
  <line x1="709" y1="30" x2="709" y2="954" stroke="#E8E8E8" stroke-width="0.4" stroke-dasharray="3,3"/>
  <text x="709" y="968" font-size="9" fill="#888" text-anchor="middle">99%</text>
  <line x1="845" y1="30" x2="845" y2="954" stroke="#E8E8E8" stroke-width="0.4" stroke-dasharray="3,3"/>
  <text x="845" y="968" font-size="9" fill="#888" text-anchor="middle">100%</text>
  <line x1="165" y1="30" x2="165" y2="954" stroke="#999" stroke-width="0.75"/>
  <line x1="165" y1="954" x2="845" y2="954" stroke="#999" stroke-width="0.75"/>
  <text x="505" y="984" font-size="10" fill="#555" text-anchor="middle">Exact-match rate (%)</text>
  <text x="161" y="44" font-size="8" fill="#222" text-anchor="end">variant‑calling (16)</text>
  <rect x="165" y="32.0" width="628.3" height="5.5" rx="1" fill="#2166AC" opacity="0.85"/>
  <text x="796.3" y="37.0" font-size="6" fill="#2166AC">99.6%</text>
  <rect x="165" y="38.5" width="603.8" height="5.5" rx="1" fill="#D6604D" opacity="0.85"/>
  <text x="771.8" y="43.5" font-size="6" fill="#D6604D">99.4%</text>
  <rect x="165" y="45.0" width="628.3" height="5.5" rx="1" fill="#4DAF4A" opacity="0.85"/>
  <text x="796.3" y="50.0" font-size="6" fill="#4DAF4A">99.6%</text>
  <text x="161" y="64" font-size="8" fill="#222" text-anchor="end">qc (12)</text>
  <rect x="165" y="53.0" width="601.1" height="5.5" rx="1" fill="#2166AC" opacity="0.85"/>
  <text x="769.1" y="58.0" font-size="6" fill="#2166AC">99.4%</text>
  <rect x="165" y="59.5" width="612.0" height="5.5" rx="1" fill="#D6604D" opacity="0.85"/>
  <text x="780.0" y="64.5" font-size="6" fill="#D6604D">99.5%</text>
  <rect x="165" y="66.0" width="669.1" height="5.5" rx="1" fill="#4DAF4A" opacity="0.85"/>
  <text x="161" y="86" font-size="8" fill="#222" text-anchor="end">assembly (11)</text>
  <rect x="165" y="74.0" width="643.3" height="5.5" rx="1" fill="#2166AC" opacity="0.85"/>
  <text x="811.3" y="79.0" font-size="6" fill="#2166AC">99.7%</text>
  <rect x="165" y="80.5" width="655.5" height="5.5" rx="1" fill="#D6604D" opacity="0.85"/>
  <rect x="165" y="87.0" width="593.0" height="5.5" rx="1" fill="#4DAF4A" opacity="0.85"/>
  <text x="761.0" y="92.0" font-size="6" fill="#4DAF4A">99.4%</text>
  <text x="161" y="106" font-size="8" fill="#222" text-anchor="end">metagenomics (10)</text>
  <rect x="165" y="95.0" width="639.2" height="5.5" rx="1" fill="#2166AC" opacity="0.85"/>
  <text x="807.2" y="100.0" font-size="6" fill="#2166AC">99.7%</text>
  <rect x="165" y="101.5" width="652.8" height="5.5" rx="1" fill="#D6604D" opacity="0.85"/>
  <rect x="165" y="108.0" width="652.8" height="5.5" rx="1" fill="#4DAF4A" opacity="0.85"/>
  <text x="161" y="128" font-size="8" fill="#222" text-anchor="end">alignment (9)</text>
  <rect x="165" y="116.0" width="635.1" height="5.5" rx="1" fill="#2166AC" opacity="0.85"/>
  <text x="803.1" y="121.0" font-size="6" fill="#2166AC">99.7%</text>
  <rect x="165" y="122.5" width="620.2" height="5.5" rx="1" fill="#D6604D" opacity="0.85"/>
  <text x="788.2" y="127.5" font-size="6" fill="#D6604D">99.6%</text>
  <rect x="165" y="129.0" width="588.9" height="5.5" rx="1" fill="#4DAF4A" opacity="0.85"/>
  <text x="756.9" y="134.0" font-size="6" fill="#4DAF4A">99.3%</text>
  <text x="161" y="148" font-size="8" fill="#222" text-anchor="end">epigenomics (8)</text>
  <rect x="165" y="137.0" width="612.0" height="5.5" rx="1" fill="#2166AC" opacity="0.85"/>
  <text x="780.0" y="142.0" font-size="6" fill="#2166AC">99.5%</text>
  <rect x="165" y="143.5" width="628.3" height="5.5" rx="1" fill="#D6604D" opacity="0.85"/>
  <text x="796.3" y="148.5" font-size="6" fill="#D6604D">99.6%</text>
  <rect x="165" y="150.0" width="612.0" height="5.5" rx="1" fill="#4DAF4A" opacity="0.85"/>
  <text x="780.0" y="155.0" font-size="6" fill="#4DAF4A">99.5%</text>
  <text x="161" y="170" font-size="8" fill="#222" text-anchor="end">rna‑seq (8)</text>
  <rect x="165" y="158.0" width="663.7" height="5.5" rx="1" fill="#2166AC" opacity="0.85"/>
  <rect x="165" y="164.5" width="663.7" height="5.5" rx="1" fill="#D6604D" opacity="0.85"/>
  <rect x="165" y="171.0" width="663.7" height="5.5" rx="1" fill="#4DAF4A" opacity="0.85"/>
  <text x="161" y="190" font-size="8" fill="#222" text-anchor="end">annotation (6)</text>
  <rect x="165" y="179.0" width="612.0" height="5.5" rx="1" fill="#2166AC" opacity="0.85"/>
  <text x="780.0" y="184.0" font-size="6" fill="#2166AC">99.5%</text>
  <rect x="165" y="185.5" width="612.0" height="5.5" rx="1" fill="#D6604D" opacity="0.85"/>
  <text x="780.0" y="190.5" font-size="6" fill="#D6604D">99.5%</text>
  <rect x="165" y="192.0" width="612.0" height="5.5" rx="1" fill="#4DAF4A" opacity="0.85"/>
  <text x="780.0" y="197.0" font-size="6" fill="#4DAF4A">99.5%</text>
  <text x="161" y="212" font-size="8" fill="#222" text-anchor="end">hpc (6)</text>
  <rect x="165" y="200.0" width="680.0" height="5.5" rx="1" fill="#2166AC" opacity="0.85"/>
  <rect x="165" y="206.5" width="680.0" height="5.5" rx="1" fill="#D6604D" opacity="0.85"/>
  <rect x="165" y="213.0" width="656.9" height="5.5" rx="1" fill="#4DAF4A" opacity="0.85"/>
  <text x="161" y="232" font-size="8" fill="#222" text-anchor="end">utilities (6)</text>
  <rect x="165" y="221.0" width="588.9" height="5.5" rx="1" fill="#2166AC" opacity="0.85"/>
  <text x="756.9" y="226.0" font-size="6" fill="#2166AC">99.3%</text>
  <rect x="165" y="227.5" width="635.1" height="5.5" rx="1" fill="#D6604D" opacity="0.85"/>
  <text x="803.1" y="232.5" font-size="6" fill="#D6604D">99.7%</text>
  <rect x="165" y="234.0" width="656.9" height="5.5" rx="1" fill="#4DAF4A" opacity="0.85"/>
  <text x="161" y="254" font-size="8" fill="#222" text-anchor="end">package‑management (5)</text>
  <rect x="165" y="242.0" width="680.0" height="5.5" rx="1" fill="#2166AC" opacity="0.85"/>
  <rect x="165" y="248.5" width="680.0" height="5.5" rx="1" fill="#D6604D" opacity="0.85"/>
  <rect x="165" y="255.0" width="598.4" height="5.5" rx="1" fill="#4DAF4A" opacity="0.85"/>
  <text x="766.4" y="260.0" font-size="6" fill="#4DAF4A">99.4%</text>
  <text x="161" y="274" font-size="8" fill="#222" text-anchor="end">single‑cell (5)</text>
  <rect x="165" y="263.0" width="625.6" height="5.5" rx="1" fill="#2166AC" opacity="0.85"/>
  <text x="793.6" y="268.0" font-size="6" fill="#2166AC">99.6%</text>
  <rect x="165" y="269.5" width="598.4" height="5.5" rx="1" fill="#D6604D" opacity="0.85"/>
  <text x="766.4" y="274.5" font-size="6" fill="#D6604D">99.4%</text>
  <rect x="165" y="276.0" width="435.2" height="5.5" rx="1" fill="#4DAF4A" opacity="0.85"/>
  <text x="603.2" y="281.0" font-size="6" fill="#4DAF4A">98.2%</text>
  <text x="161" y="296" font-size="8" fill="#222" text-anchor="end">networking (4)</text>
  <rect x="165" y="284.0" width="680.0" height="5.5" rx="1" fill="#2166AC" opacity="0.85"/>
  <rect x="165" y="290.5" width="646.0" height="5.5" rx="1" fill="#D6604D" opacity="0.85"/>
  <text x="814.0" y="295.5" font-size="6" fill="#D6604D">99.8%</text>
  <rect x="165" y="297.0" width="442.0" height="5.5" rx="1" fill="#4DAF4A" opacity="0.85"/>
  <text x="610.0" y="302.0" font-size="6" fill="#4DAF4A">98.2%</text>
  <text x="161" y="316" font-size="8" fill="#222" text-anchor="end">phylogenetics (4)</text>
  <rect x="165" y="305.0" width="646.0" height="5.5" rx="1" fill="#2166AC" opacity="0.85"/>
  <text x="814.0" y="310.0" font-size="6" fill="#2166AC">99.8%</text>
  <rect x="165" y="311.5" width="578.0" height="5.5" rx="1" fill="#D6604D" opacity="0.85"/>
  <text x="746.0" y="316.5" font-size="6" fill="#D6604D">99.2%</text>
  <rect x="165" y="318.0" width="476.0" height="5.5" rx="1" fill="#4DAF4A" opacity="0.85"/>
  <text x="644.0" y="323.0" font-size="6" fill="#4DAF4A">98.5%</text>
  <text x="161" y="338" font-size="8" fill="#222" text-anchor="end">population‑genomics (4)</text>
  <rect x="165" y="326.0" width="646.0" height="5.5" rx="1" fill="#2166AC" opacity="0.85"/>
  <text x="814.0" y="331.0" font-size="6" fill="#2166AC">99.8%</text>
  <rect x="165" y="332.5" width="646.0" height="5.5" rx="1" fill="#D6604D" opacity="0.85"/>
  <text x="814.0" y="337.5" font-size="6" fill="#D6604D">99.8%</text>
  <rect x="165" y="339.0" width="646.0" height="5.5" rx="1" fill="#4DAF4A" opacity="0.85"/>
  <text x="814.0" y="344.0" font-size="6" fill="#4DAF4A">99.8%</text>
  <text x="161" y="358" font-size="8" fill="#222" text-anchor="end">filesystem (3)</text>
  <rect x="165" y="347.0" width="588.9" height="5.5" rx="1" fill="#2166AC" opacity="0.85"/>
  <text x="756.9" y="352.0" font-size="6" fill="#2166AC">99.3%</text>
  <rect x="165" y="353.5" width="635.1" height="5.5" rx="1" fill="#D6604D" opacity="0.85"/>
  <text x="803.1" y="358.5" font-size="6" fill="#D6604D">99.7%</text>
  <rect x="165" y="360.0" width="680.0" height="5.5" rx="1" fill="#4DAF4A" opacity="0.85"/>
  <text x="161" y="380" font-size="8" fill="#222" text-anchor="end">sequence‑utilities (3)</text>
  <rect x="165" y="368.0" width="635.1" height="5.5" rx="1" fill="#2166AC" opacity="0.85"/>
  <text x="803.1" y="373.0" font-size="6" fill="#2166AC">99.7%</text>
  <rect x="165" y="374.5" width="588.9" height="5.5" rx="1" fill="#D6604D" opacity="0.85"/>
  <text x="756.9" y="379.5" font-size="6" fill="#D6604D">99.3%</text>
  <rect x="165" y="381.0" width="588.9" height="5.5" rx="1" fill="#4DAF4A" opacity="0.85"/>
  <text x="756.9" y="386.0" font-size="6" fill="#4DAF4A">99.3%</text>
  <text x="161" y="400" font-size="8" fill="#222" text-anchor="end">text‑processing (3)</text>
  <rect x="165" y="389.0" width="588.9" height="5.5" rx="1" fill="#2166AC" opacity="0.85"/>
  <text x="756.9" y="394.0" font-size="6" fill="#2166AC">99.3%</text>
  <rect x="165" y="395.5" width="680.0" height="5.5" rx="1" fill="#D6604D" opacity="0.85"/>
  <rect x="165" y="402.0" width="588.9" height="5.5" rx="1" fill="#4DAF4A" opacity="0.85"/>
  <text x="756.9" y="407.0" font-size="6" fill="#4DAF4A">99.3%</text>
  <text x="161" y="422" font-size="8" fill="#222" text-anchor="end">variant‑annotation (3)</text>
  <rect x="165" y="410.0" width="588.9" height="5.5" rx="1" fill="#2166AC" opacity="0.85"/>
  <text x="756.9" y="415.0" font-size="6" fill="#2166AC">99.3%</text>
  <rect x="165" y="416.5" width="635.1" height="5.5" rx="1" fill="#D6604D" opacity="0.85"/>
  <text x="803.1" y="421.5" font-size="6" fill="#D6604D">99.7%</text>
  <rect x="165" y="423.0" width="680.0" height="5.5" rx="1" fill="#4DAF4A" opacity="0.85"/>
  <text x="161" y="442" font-size="8" fill="#222" text-anchor="end">ai‑assistant (2)</text>
  <rect x="165" y="431.0" width="680.0" height="5.5" rx="1" fill="#2166AC" opacity="0.85"/>
  <rect x="165" y="437.5" width="612.0" height="5.5" rx="1" fill="#D6604D" opacity="0.85"/>
  <text x="780.0" y="442.5" font-size="6" fill="#D6604D">99.5%</text>
  <rect x="165" y="444.0" width="680.0" height="5.5" rx="1" fill="#4DAF4A" opacity="0.85"/>
  <text x="161" y="464" font-size="8" fill="#222" text-anchor="end">comparative‑genomics (2)</text>
  <rect x="165" y="452.0" width="680.0" height="5.5" rx="1" fill="#2166AC" opacity="0.85"/>
  <rect x="165" y="458.5" width="476.0" height="5.5" rx="1" fill="#D6604D" opacity="0.85"/>
  <text x="644.0" y="463.5" font-size="6" fill="#D6604D">98.5%</text>
  <rect x="165" y="465.0" width="476.0" height="5.5" rx="1" fill="#4DAF4A" opacity="0.85"/>
  <text x="644.0" y="470.0" font-size="6" fill="#4DAF4A">98.5%</text>
  <text x="161" y="484" font-size="8" fill="#222" text-anchor="end">containerization (2)</text>
  <rect x="165" y="473.0" width="680.0" height="5.5" rx="1" fill="#2166AC" opacity="0.85"/>
  <rect x="165" y="479.5" width="476.0" height="5.5" rx="1" fill="#D6604D" opacity="0.85"/>
  <text x="644.0" y="484.5" font-size="6" fill="#D6604D">98.5%</text>
  <rect x="165" y="486.0" width="476.0" height="5.5" rx="1" fill="#4DAF4A" opacity="0.85"/>
  <text x="644.0" y="491.0" font-size="6" fill="#4DAF4A">98.5%</text>
  <text x="161" y="506" font-size="8" fill="#222" text-anchor="end">long‑read (2)</text>
  <rect x="165" y="494.0" width="680.0" height="5.5" rx="1" fill="#2166AC" opacity="0.85"/>
  <rect x="165" y="500.5" width="612.0" height="5.5" rx="1" fill="#D6604D" opacity="0.85"/>
  <text x="780.0" y="505.5" font-size="6" fill="#D6604D">99.5%</text>
  <rect x="165" y="507.0" width="612.0" height="5.5" rx="1" fill="#4DAF4A" opacity="0.85"/>
  <text x="780.0" y="512.0" font-size="6" fill="#4DAF4A">99.5%</text>
  <text x="161" y="526" font-size="8" fill="#222" text-anchor="end">quality‑control (2)</text>
  <rect x="165" y="515.0" width="544.0" height="5.5" rx="1" fill="#2166AC" opacity="0.85"/>
  <text x="712.0" y="520.0" font-size="6" fill="#2166AC">99.0%</text>
  <rect x="165" y="521.5" width="476.0" height="5.5" rx="1" fill="#D6604D" opacity="0.85"/>
  <text x="644.0" y="526.5" font-size="6" fill="#D6604D">98.5%</text>
  <rect x="165" y="528.0" width="680.0" height="5.5" rx="1" fill="#4DAF4A" opacity="0.85"/>
  <text x="161" y="548" font-size="8" fill="#222" text-anchor="end">scripting (2)</text>
  <rect x="165" y="536.0" width="612.0" height="5.5" rx="1" fill="#2166AC" opacity="0.85"/>
  <text x="780.0" y="541.0" font-size="6" fill="#2166AC">99.5%</text>
  <rect x="165" y="542.5" width="680.0" height="5.5" rx="1" fill="#D6604D" opacity="0.85"/>
  <rect x="165" y="549.0" width="680.0" height="5.5" rx="1" fill="#4DAF4A" opacity="0.85"/>
  <text x="161" y="568" font-size="8" fill="#222" text-anchor="end">sequence‑comparison (2)</text>
  <rect x="165" y="557.0" width="612.0" height="5.5" rx="1" fill="#2166AC" opacity="0.85"/>
  <text x="780.0" y="562.0" font-size="6" fill="#2166AC">99.5%</text>
  <rect x="165" y="563.5" width="680.0" height="5.5" rx="1" fill="#D6604D" opacity="0.85"/>
  <rect x="165" y="570.0" width="612.0" height="5.5" rx="1" fill="#4DAF4A" opacity="0.85"/>
  <text x="780.0" y="575.0" font-size="6" fill="#4DAF4A">99.5%</text>
  <text x="161" y="590" font-size="8" fill="#222" text-anchor="end">workflow‑manager (2)</text>
  <rect x="165" y="578.0" width="680.0" height="5.5" rx="1" fill="#2166AC" opacity="0.85"/>
  <rect x="165" y="584.5" width="680.0" height="5.5" rx="1" fill="#D6604D" opacity="0.85"/>
  <rect x="165" y="591.0" width="680.0" height="5.5" rx="1" fill="#4DAF4A" opacity="0.85"/>
  <text x="161" y="610" font-size="8" fill="#222" text-anchor="end">assembly‑polishing (1)</text>
  <rect x="165" y="599.0" width="680.0" height="5.5" rx="1" fill="#2166AC" opacity="0.85"/>
  <rect x="165" y="605.5" width="680.0" height="5.5" rx="1" fill="#D6604D" opacity="0.85"/>
  <rect x="165" y="612.0" width="680.0" height="5.5" rx="1" fill="#4DAF4A" opacity="0.85"/>
  <text x="161" y="632" font-size="8" fill="#222" text-anchor="end">functional‑annotation (1)</text>
  <rect x="165" y="620.0" width="544.0" height="5.5" rx="1" fill="#2166AC" opacity="0.85"/>
  <text x="712.0" y="625.0" font-size="6" fill="#2166AC">99.0%</text>
  <rect x="165" y="626.5" width="408.0" height="5.5" rx="1" fill="#D6604D" opacity="0.85"/>
  <text x="576.0" y="631.5" font-size="6" fill="#D6604D">98.0%</text>
  <rect x="165" y="633.0" width="680.0" height="5.5" rx="1" fill="#4DAF4A" opacity="0.85"/>
  <text x="161" y="652" font-size="8" fill="#222" text-anchor="end">genome‑alignment (1)</text>
  <rect x="165" y="641.0" width="408.0" height="5.5" rx="1" fill="#2166AC" opacity="0.85"/>
  <text x="576.0" y="646.0" font-size="6" fill="#2166AC">98.0%</text>
  <rect x="165" y="647.5" width="680.0" height="5.5" rx="1" fill="#D6604D" opacity="0.85"/>
  <rect x="165" y="654.0" width="680.0" height="5.5" rx="1" fill="#4DAF4A" opacity="0.85"/>
  <text x="161" y="674" font-size="8" fill="#222" text-anchor="end">genome‑annotation (1)</text>
  <rect x="165" y="662.0" width="680.0" height="5.5" rx="1" fill="#2166AC" opacity="0.85"/>
  <rect x="165" y="668.5" width="680.0" height="5.5" rx="1" fill="#D6604D" opacity="0.85"/>
  <rect x="165" y="675.0" width="680.0" height="5.5" rx="1" fill="#4DAF4A" opacity="0.85"/>
  <text x="161" y="694" font-size="8" fill="#222" text-anchor="end">genomic‑arithmetic (1)</text>
  <rect x="165" y="683.0" width="680.0" height="5.5" rx="1" fill="#2166AC" opacity="0.85"/>
  <rect x="165" y="689.5" width="680.0" height="5.5" rx="1" fill="#D6604D" opacity="0.85"/>
  <rect x="165" y="696.0" width="408.0" height="5.5" rx="1" fill="#4DAF4A" opacity="0.85"/>
  <text x="576.0" y="701.0" font-size="6" fill="#4DAF4A">98.0%</text>
  <text x="161" y="716" font-size="8" fill="#222" text-anchor="end">genomic‑intervals (1)</text>
  <rect x="165" y="704.0" width="680.0" height="5.5" rx="1" fill="#2166AC" opacity="0.85"/>
  <rect x="165" y="710.5" width="272.0" height="5.5" rx="1" fill="#D6604D" opacity="0.85"/>
  <text x="440.0" y="715.5" font-size="6" fill="#D6604D">97.0%</text>
  <rect x="165" y="717.0" width="680.0" height="5.5" rx="1" fill="#4DAF4A" opacity="0.85"/>
  <text x="161" y="736" font-size="8" fill="#222" text-anchor="end">motif‑analysis (1)</text>
  <rect x="165" y="725.0" width="680.0" height="5.5" rx="1" fill="#2166AC" opacity="0.85"/>
  <rect x="165" y="731.5" width="680.0" height="5.5" rx="1" fill="#D6604D" opacity="0.85"/>
  <rect x="165" y="738.0" width="544.0" height="5.5" rx="1" fill="#4DAF4A" opacity="0.85"/>
  <text x="712.0" y="743.0" font-size="6" fill="#4DAF4A">99.0%</text>
  <text x="161" y="758" font-size="8" fill="#222" text-anchor="end">programming (1)</text>
  <rect x="165" y="746.0" width="680.0" height="5.5" rx="1" fill="#2166AC" opacity="0.85"/>
  <rect x="165" y="752.5" width="680.0" height="5.5" rx="1" fill="#D6604D" opacity="0.85"/>
  <rect x="165" y="759.0" width="544.0" height="5.5" rx="1" fill="#4DAF4A" opacity="0.85"/>
  <text x="712.0" y="764.0" font-size="6" fill="#4DAF4A">99.0%</text>
  <text x="161" y="778" font-size="8" fill="#222" text-anchor="end">runtime (1)</text>
  <rect x="165" y="767.0" width="680.0" height="5.5" rx="1" fill="#2166AC" opacity="0.85"/>
  <rect x="165" y="773.5" width="680.0" height="5.5" rx="1" fill="#D6604D" opacity="0.85"/>
  <rect x="165" y="780.0" width="680.0" height="5.5" rx="1" fill="#4DAF4A" opacity="0.85"/>
  <text x="161" y="800" font-size="8" fill="#222" text-anchor="end">scientific‑computing (1)</text>
  <rect x="165" y="788.0" width="680.0" height="5.5" rx="1" fill="#2166AC" opacity="0.85"/>
  <rect x="165" y="794.5" width="680.0" height="5.5" rx="1" fill="#D6604D" opacity="0.85"/>
  <rect x="165" y="801.0" width="544.0" height="5.5" rx="1" fill="#4DAF4A" opacity="0.85"/>
  <text x="712.0" y="806.0" font-size="6" fill="#4DAF4A">99.0%</text>
  <text x="161" y="820" font-size="8" fill="#222" text-anchor="end">sequence‑manipulation (1)</text>
  <rect x="165" y="809.0" width="680.0" height="5.5" rx="1" fill="#2166AC" opacity="0.85"/>
  <rect x="165" y="815.5" width="680.0" height="5.5" rx="1" fill="#D6604D" opacity="0.85"/>
  <rect x="165" y="822.0" width="680.0" height="5.5" rx="1" fill="#4DAF4A" opacity="0.85"/>
  <text x="161" y="842" font-size="8" fill="#222" text-anchor="end">sequence‑processing (1)</text>
  <rect x="165" y="830.0" width="680.0" height="5.5" rx="1" fill="#2166AC" opacity="0.85"/>
  <rect x="165" y="836.5" width="680.0" height="5.5" rx="1" fill="#D6604D" opacity="0.85"/>
  <rect x="165" y="843.0" width="544.0" height="5.5" rx="1" fill="#4DAF4A" opacity="0.85"/>
  <text x="712.0" y="848.0" font-size="6" fill="#4DAF4A">99.0%</text>
  <text x="161" y="862" font-size="8" fill="#222" text-anchor="end">sequence‑search (1)</text>
  <rect x="165" y="851.0" width="680.0" height="5.5" rx="1" fill="#2166AC" opacity="0.85"/>
  <rect x="165" y="857.5" width="680.0" height="5.5" rx="1" fill="#D6604D" opacity="0.85"/>
  <rect x="165" y="864.0" width="680.0" height="5.5" rx="1" fill="#4DAF4A" opacity="0.85"/>
  <text x="161" y="884" font-size="8" fill="#222" text-anchor="end">statistical‑computing (1)</text>
  <rect x="165" y="872.0" width="680.0" height="5.5" rx="1" fill="#2166AC" opacity="0.85"/>
  <rect x="165" y="878.5" width="544.0" height="5.5" rx="1" fill="#D6604D" opacity="0.85"/>
  <text x="712.0" y="883.5" font-size="6" fill="#D6604D">99.0%</text>
  <rect x="165" y="885.0" width="544.0" height="5.5" rx="1" fill="#4DAF4A" opacity="0.85"/>
  <text x="712.0" y="890.0" font-size="6" fill="#4DAF4A">99.0%</text>
  <text x="161" y="904" font-size="8" fill="#222" text-anchor="end">structural‑variants (1)</text>
  <rect x="165" y="893.0" width="680.0" height="5.5" rx="1" fill="#2166AC" opacity="0.85"/>
  <rect x="165" y="899.5" width="680.0" height="5.5" rx="1" fill="#D6604D" opacity="0.85"/>
  <rect x="165" y="906.0" width="544.0" height="5.5" rx="1" fill="#4DAF4A" opacity="0.85"/>
  <text x="712.0" y="911.0" font-size="6" fill="#4DAF4A">99.0%</text>
  <text x="161" y="926" font-size="8" fill="#222" text-anchor="end">variant‑benchmarking (1)</text>
  <rect x="165" y="914.0" width="544.0" height="5.5" rx="1" fill="#2166AC" opacity="0.85"/>
  <text x="712.0" y="919.0" font-size="6" fill="#2166AC">99.0%</text>
  <rect x="165" y="920.5" width="680.0" height="5.5" rx="1" fill="#D6604D" opacity="0.85"/>
  <rect x="165" y="927.0" width="680.0" height="5.5" rx="1" fill="#4DAF4A" opacity="0.85"/>
  <text x="161" y="946" font-size="8" fill="#222" text-anchor="end">version‑control (1)</text>
  <rect x="165" y="935.0" width="680.0" height="5.5" rx="1" fill="#2166AC" opacity="0.85"/>
  <rect x="165" y="941.5" width="680.0" height="5.5" rx="1" fill="#D6604D" opacity="0.85"/>
  <rect x="165" y="948.0" width="680.0" height="5.5" rx="1" fill="#4DAF4A" opacity="0.85"/>
  <rect x="305" y="994" width="9" height="7" rx="1" fill="#2166AC"/>
  <text x="318" y="1000" font-size="9" fill="#555">GPT-4o</text>
  <rect x="445" y="994" width="9" height="7" rx="1" fill="#D6604D"/>
  <text x="458" y="1000" font-size="9" fill="#555">Claude 3.5 Sonnet</text>
  <rect x="585" y="994" width="9" height="7" rx="1" fill="#4DAF4A"/>
  <text x="598" y="1000" font-size="9" fill="#555">GPT-4o-mini</text>
</svg>