<svg xmlns="http://www.w3.org/2000/svg" viewBox="0 0 880 460" font-family="Helvetica, Arial, sans-serif">
  <rect x="0" y="0" width="880" height="460" fill="white"/>
  <line x1="70" y1="380.0" x2="850" y2="380.0" stroke="#E8E8E8" stroke-width="0.4" stroke-dasharray="3,3"/>
  <text x="62" y="383.0" font-size="9" fill="#888888" text-anchor="end">0</text>
  <line x1="70" y1="295.0" x2="850" y2="295.0" stroke="#E8E8E8" stroke-width="0.4" stroke-dasharray="3,3"/>
  <text x="62" y="298.0" font-size="9" fill="#888888" text-anchor="end">25</text>
  <line x1="70" y1="210.0" x2="850" y2="210.0" stroke="#E8E8E8" stroke-width="0.4" stroke-dasharray="3,3"/>
  <text x="62" y="213.0" font-size="9" fill="#888888" text-anchor="end">50</text>
  <line x1="70" y1="125.0" x2="850" y2="125.0" stroke="#E8E8E8" stroke-width="0.4" stroke-dasharray="3,3"/>
  <text x="62" y="128.0" font-size="9" fill="#888888" text-anchor="end">75</text>
  <line x1="70" y1="40.0" x2="850" y2="40.0" stroke="#E8E8E8" stroke-width="0.4" stroke-dasharray="3,3"/>
  <text x="62" y="43.0" font-size="9" fill="#888888" text-anchor="end">100</text>
  <line x1="70" y1="40" x2="70" y2="380" stroke="#999" stroke-width="0.75"/>
  <line x1="70" y1="380" x2="850" y2="380" stroke="#999" stroke-width="0.75"/>
  <text x="16" y="210.0" font-size="11" fill="#555555" text-anchor="middle" transform="rotate(-90,16,210.0)">Exact-match rate (%)</text>
  <text x="167.5" y="398" font-size="11" fill="#222222" text-anchor="middle" font-weight="bold">Baseline</text>
  <rect x="94.3" y="128.1" width="46.8" height="251.9" rx="2" fill="#2166AC" opacity="0.85"/>
  <text x="117.7" y="123.1" font-size="8" fill="#2166AC" text-anchor="middle" font-weight="bold">74.1%</text>
  <rect x="144.1" y="158.2" width="46.8" height="221.8" rx="2" fill="#D6604D" opacity="0.85"/>
  <text x="167.5" y="153.2" font-size="8" fill="#D6604D" text-anchor="middle" font-weight="bold">65.2%</text>
  <rect x="193.9" y="201.9" width="46.8" height="178.1" rx="2" fill="#4DAF4A" opacity="0.85"/>
  <text x="217.3" y="196.9" font-size="8" fill="#4DAF4A" text-anchor="middle" font-weight="bold">52.4%</text>
  <text x="362.5" y="398" font-size="11" fill="#222222" text-anchor="middle" font-weight="bold">Docs only</text>
  <rect x="289.3" y="64.5" width="46.8" height="315.5" rx="2" fill="#2166AC" opacity="0.85"/>
  <text x="312.7" y="59.5" font-size="8" fill="#2166AC" text-anchor="middle" font-weight="bold">92.8%</text>
  <rect x="339.1" y="76.7" width="46.8" height="303.3" rx="2" fill="#D6604D" opacity="0.85"/>
  <text x="362.5" y="71.7" font-size="8" fill="#D6604D" text-anchor="middle" font-weight="bold">89.2%</text>
  <rect x="388.9" y="89.0" width="46.8" height="291.0" rx="2" fill="#4DAF4A" opacity="0.85"/>
  <text x="412.3" y="84.0" font-size="8" fill="#4DAF4A" text-anchor="middle" font-weight="bold">85.6%</text>
  <text x="557.5" y="398" font-size="11" fill="#222222" text-anchor="middle" font-weight="bold">Skills only</text>
  <rect x="484.3" y="92.7" width="46.8" height="287.3" rx="2" fill="#2166AC" opacity="0.85"/>
  <text x="507.7" y="87.7" font-size="8" fill="#2166AC" text-anchor="middle" font-weight="bold">84.5%</text>
  <rect x="534.1" y="107.7" width="46.8" height="272.3" rx="2" fill="#D6604D" opacity="0.85"/>
  <text x="557.5" y="102.7" font-size="8" fill="#D6604D" text-anchor="middle" font-weight="bold">80.1%</text>
  <rect x="583.9" y="131.1" width="46.8" height="248.9" rx="2" fill="#4DAF4A" opacity="0.85"/>
  <text x="607.3" y="126.1" font-size="8" fill="#4DAF4A" text-anchor="middle" font-weight="bold">73.2%</text>
  <text x="752.5" y="398" font-size="11" fill="#222222" text-anchor="middle" font-weight="bold">Combined</text>
  <rect x="679.3" y="41.1" width="46.8" height="338.9" rx="2" fill="#2166AC" opacity="0.85"/>
  <text x="702.7" y="36.1" font-size="8" fill="#2166AC" text-anchor="middle" font-weight="bold">99.7%</text>
  <rect x="729.1" y="41.3" width="46.8" height="338.7" rx="2" fill="#D6604D" opacity="0.85"/>
  <text x="752.5" y="36.3" font-size="8" fill="#D6604D" text-anchor="middle" font-weight="bold">99.6%</text>
  <rect x="778.9" y="41.7" width="46.8" height="338.3" rx="2" fill="#4DAF4A" opacity="0.85"/>
  <text x="802.3" y="36.7" font-size="8" fill="#4DAF4A" text-anchor="middle" font-weight="bold">99.5%</text>
  <text x="265.0" y="50.0" font-size="9" fill="#888888" text-anchor="middle" font-style="italic">avg Δ=+25.3 pp</text>
  <text x="460.0" y="50.0" font-size="9" fill="#888888" text-anchor="middle" font-style="italic">avg Δ=-9.9 pp</text>
  <text x="655.0" y="50.0" font-size="9" fill="#888888" text-anchor="middle" font-style="italic">avg Δ=+20.3 pp</text>
  <rect x="310.0" y="424.0" width="10" height="8" rx="1" fill="#2166AC"/>
  <text x="324.0" y="431.0" font-size="10" fill="#555555">GPT-4o</text>
  <rect x="460.0" y="424.0" width="10" height="8" rx="1" fill="#D6604D"/>
  <text x="474.0" y="431.0" font-size="10" fill="#555555">Claude 3.5 Sonnet</text>
  <rect x="610.0" y="424.0" width="10" height="8" rx="1" fill="#4DAF4A"/>
  <text x="624.0" y="431.0" font-size="10" fill="#555555">GPT-4o-mini</text>
  <text x="460.0" y="449.0" font-size="8.5" fill="#888888" text-anchor="middle" font-style="italic">Docs-only and skills-only rates estimated from component ablation (see Methods).</text>
</svg>