<svg xmlns="http://www.w3.org/2000/svg" viewBox="0 0 940 1051" font-family="Helvetica, Arial, sans-serif">
  <rect x="0" y="0" width="940" height="1051" fill="white"/>
  <line x1="170.0" y1="28" x2="170.0" y2="996" stroke="#E8E8E8" stroke-width="0.4" stroke-dasharray="3,3"/>
  <text x="170.0" y="1010" font-size="10" fill="#888888" text-anchor="middle">95%</text>
  <line x1="312.0" y1="28" x2="312.0" y2="996" stroke="#E8E8E8" stroke-width="0.4" stroke-dasharray="3,3"/>
  <text x="312.0" y="1010" font-size="10" fill="#888888" text-anchor="middle">96%</text>
  <line x1="454.0" y1="28" x2="454.0" y2="996" stroke="#E8E8E8" stroke-width="0.4" stroke-dasharray="3,3"/>
  <text x="454.0" y="1010" font-size="10" fill="#888888" text-anchor="middle">97%</text>
  <line x1="596.0" y1="28" x2="596.0" y2="996" stroke="#E8E8E8" stroke-width="0.4" stroke-dasharray="3,3"/>
  <text x="596.0" y="1010" font-size="10" fill="#888888" text-anchor="middle">98%</text>
  <line x1="738.0" y1="28" x2="738.0" y2="996" stroke="#E8E8E8" stroke-width="0.4" stroke-dasharray="3,3"/>
  <text x="738.0" y="1010" font-size="10" fill="#888888" text-anchor="middle">99%</text>
  <line x1="880.0" y1="28" x2="880.0" y2="996" stroke="#E8E8E8" stroke-width="0.4" stroke-dasharray="3,3"/>
  <text x="880.0" y="1010" font-size="10" fill="#888888" text-anchor="middle">100%</text>
  <line x1="170" y1="28" x2="170" y2="996" stroke="#999" stroke-width="0.75"/>
  <line x1="170" y1="996" x2="880" y2="996" stroke="#999" stroke-width="0.75"/>
  <text x="525.0" y="1026" font-size="11" fill="#555555" text-anchor="middle">Exact-match rate (%)</text>
  <text x="165" y="41.0" font-size="8.5" fill="#222222" text-anchor="end">variant‑calling (16)</text>
  <rect x="170" y="29.0" width="656.0" height="5.5" rx="1" fill="#2166AC" opacity="0.85"/>
  <text x="829.0" y="34.0" font-size="6.5" fill="#2166AC">99.6%</text>
  <rect x="170" y="35.5" width="630.5" height="5.5" rx="1" fill="#D6604D" opacity="0.85"/>
  <text x="803.5" y="40.5" font-size="6.5" fill="#D6604D">99.4%</text>
  <rect x="170" y="42.0" width="656.0" height="5.5" rx="1" fill="#4DAF4A" opacity="0.85"/>
  <text x="829.0" y="47.0" font-size="6.5" fill="#4DAF4A">99.6%</text>
  <text x="165" y="63.0" font-size="8.5" fill="#222222" text-anchor="end">qc (12)</text>
  <rect x="170" y="51.0" width="627.6" height="5.5" rx="1" fill="#2166AC" opacity="0.85"/>
  <text x="800.6" y="56.0" font-size="6.5" fill="#2166AC">99.4%</text>
  <rect x="170" y="57.5" width="639.0" height="5.5" rx="1" fill="#D6604D" opacity="0.85"/>
  <text x="812.0" y="62.5" font-size="6.5" fill="#D6604D">99.5%</text>
  <rect x="170" y="64.0" width="698.6" height="5.5" rx="1" fill="#4DAF4A" opacity="0.85"/>
  <text x="165" y="85.0" font-size="8.5" fill="#222222" text-anchor="end">assembly (11)</text>
  <rect x="170" y="73.0" width="671.7" height="5.5" rx="1" fill="#2166AC" opacity="0.85"/>
  <text x="844.7" y="78.0" font-size="6.5" fill="#2166AC">99.7%</text>
  <rect x="170" y="79.5" width="684.4" height="5.5" rx="1" fill="#D6604D" opacity="0.85"/>
  <rect x="170" y="86.0" width="619.1" height="5.5" rx="1" fill="#4DAF4A" opacity="0.85"/>
  <text x="792.1" y="91.0" font-size="6.5" fill="#4DAF4A">99.4%</text>
  <text x="165" y="107.0" font-size="8.5" fill="#222222" text-anchor="end">metagenomics (10)</text>
  <rect x="170" y="95.0" width="667.4" height="5.5" rx="1" fill="#2166AC" opacity="0.85"/>
  <text x="840.4" y="100.0" font-size="6.5" fill="#2166AC">99.7%</text>
  <rect x="170" y="101.5" width="681.6" height="5.5" rx="1" fill="#D6604D" opacity="0.85"/>
  <rect x="170" y="108.0" width="681.6" height="5.5" rx="1" fill="#4DAF4A" opacity="0.85"/>
  <text x="165" y="129.0" font-size="8.5" fill="#222222" text-anchor="end">alignment (9)</text>
  <rect x="170" y="117.0" width="663.1" height="5.5" rx="1" fill="#2166AC" opacity="0.85"/>
  <text x="836.1" y="122.0" font-size="6.5" fill="#2166AC">99.7%</text>
  <rect x="170" y="123.5" width="647.5" height="5.5" rx="1" fill="#D6604D" opacity="0.85"/>
  <text x="820.5" y="128.5" font-size="6.5" fill="#D6604D">99.6%</text>
  <rect x="170" y="130.0" width="614.9" height="5.5" rx="1" fill="#4DAF4A" opacity="0.85"/>
  <text x="787.9" y="135.0" font-size="6.5" fill="#4DAF4A">99.3%</text>
  <text x="165" y="151.0" font-size="8.5" fill="#222222" text-anchor="end">epigenomics (8)</text>
  <rect x="170" y="139.0" width="639.0" height="5.5" rx="1" fill="#2166AC" opacity="0.85"/>
  <text x="812.0" y="144.0" font-size="6.5" fill="#2166AC">99.5%</text>
  <rect x="170" y="145.5" width="656.0" height="5.5" rx="1" fill="#D6604D" opacity="0.85"/>
  <text x="829.0" y="150.5" font-size="6.5" fill="#D6604D">99.6%</text>
  <rect x="170" y="152.0" width="639.0" height="5.5" rx="1" fill="#4DAF4A" opacity="0.85"/>
  <text x="812.0" y="157.0" font-size="6.5" fill="#4DAF4A">99.5%</text>
  <text x="165" y="173.0" font-size="8.5" fill="#222222" text-anchor="end">rna‑seq (8)</text>
  <rect x="170" y="161.0" width="693.0" height="5.5" rx="1" fill="#2166AC" opacity="0.85"/>
  <rect x="170" y="167.5" width="693.0" height="5.5" rx="1" fill="#D6604D" opacity="0.85"/>
  <rect x="170" y="174.0" width="693.0" height="5.5" rx="1" fill="#4DAF4A" opacity="0.85"/>
  <text x="165" y="195.0" font-size="8.5" fill="#222222" text-anchor="end">annotation (6)</text>
  <rect x="170" y="183.0" width="639.0" height="5.5" rx="1" fill="#2166AC" opacity="0.85"/>
  <text x="812.0" y="188.0" font-size="6.5" fill="#2166AC">99.5%</text>
  <rect x="170" y="189.5" width="639.0" height="5.5" rx="1" fill="#D6604D" opacity="0.85"/>
  <text x="812.0" y="194.5" font-size="6.5" fill="#D6604D">99.5%</text>
  <rect x="170" y="196.0" width="639.0" height="5.5" rx="1" fill="#4DAF4A" opacity="0.85"/>
  <text x="812.0" y="201.0" font-size="6.5" fill="#4DAF4A">99.5%</text>
  <text x="165" y="217.0" font-size="8.5" fill="#222222" text-anchor="end">hpc (6)</text>
  <rect x="170" y="205.0" width="710.0" height="5.5" rx="1" fill="#2166AC" opacity="0.85"/>
  <rect x="170" y="211.5" width="710.0" height="5.5" rx="1" fill="#D6604D" opacity="0.85"/>
  <rect x="170" y="218.0" width="685.9" height="5.5" rx="1" fill="#4DAF4A" opacity="0.85"/>
  <text x="165" y="239.0" font-size="8.5" fill="#222222" text-anchor="end">utilities (6)</text>
  <rect x="170" y="227.0" width="614.9" height="5.5" rx="1" fill="#2166AC" opacity="0.85"/>
  <text x="787.9" y="232.0" font-size="6.5" fill="#2166AC">99.3%</text>
  <rect x="170" y="233.5" width="663.1" height="5.5" rx="1" fill="#D6604D" opacity="0.85"/>
  <text x="836.1" y="238.5" font-size="6.5" fill="#D6604D">99.7%</text>
  <rect x="170" y="240.0" width="685.9" height="5.5" rx="1" fill="#4DAF4A" opacity="0.85"/>
  <text x="165" y="261.0" font-size="8.5" fill="#222222" text-anchor="end">package‑management (5)</text>
  <rect x="170" y="249.0" width="710.0" height="5.5" rx="1" fill="#2166AC" opacity="0.85"/>
  <rect x="170" y="255.5" width="710.0" height="5.5" rx="1" fill="#D6604D" opacity="0.85"/>
  <rect x="170" y="262.0" width="624.8" height="5.5" rx="1" fill="#4DAF4A" opacity="0.85"/>
  <text x="797.8" y="267.0" font-size="6.5" fill="#4DAF4A">99.4%</text>
  <text x="165" y="283.0" font-size="8.5" fill="#222222" text-anchor="end">single‑cell (5)</text>
  <rect x="170" y="271.0" width="653.2" height="5.5" rx="1" fill="#2166AC" opacity="0.85"/>
  <text x="826.2" y="276.0" font-size="6.5" fill="#2166AC">99.6%</text>
  <rect x="170" y="277.5" width="624.8" height="5.5" rx="1" fill="#D6604D" opacity="0.85"/>
  <text x="797.8" y="282.5" font-size="6.5" fill="#D6604D">99.4%</text>
  <rect x="170" y="284.0" width="454.4" height="5.5" rx="1" fill="#4DAF4A" opacity="0.85"/>
  <text x="627.4" y="289.0" font-size="6.5" fill="#4DAF4A">98.2%</text>
  <text x="165" y="305.0" font-size="8.5" fill="#222222" text-anchor="end">networking (4)</text>
  <rect x="170" y="293.0" width="710.0" height="5.5" rx="1" fill="#2166AC" opacity="0.85"/>
  <rect x="170" y="299.5" width="674.5" height="5.5" rx="1" fill="#D6604D" opacity="0.85"/>
  <text x="847.5" y="304.5" font-size="6.5" fill="#D6604D">99.8%</text>
  <rect x="170" y="306.0" width="461.5" height="5.5" rx="1" fill="#4DAF4A" opacity="0.85"/>
  <text x="634.5" y="311.0" font-size="6.5" fill="#4DAF4A">98.2%</text>
  <text x="165" y="327.0" font-size="8.5" fill="#222222" text-anchor="end">phylogenetics (4)</text>
  <rect x="170" y="315.0" width="674.5" height="5.5" rx="1" fill="#2166AC" opacity="0.85"/>
  <text x="847.5" y="320.0" font-size="6.5" fill="#2166AC">99.8%</text>
  <rect x="170" y="321.5" width="603.5" height="5.5" rx="1" fill="#D6604D" opacity="0.85"/>
  <text x="776.5" y="326.5" font-size="6.5" fill="#D6604D">99.2%</text>
  <rect x="170" y="328.0" width="497.0" height="5.5" rx="1" fill="#4DAF4A" opacity="0.85"/>
  <text x="670.0" y="333.0" font-size="6.5" fill="#4DAF4A">98.5%</text>
  <text x="165" y="349.0" font-size="8.5" fill="#222222" text-anchor="end">population‑genomics (4)</text>
  <rect x="170" y="337.0" width="674.5" height="5.5" rx="1" fill="#2166AC" opacity="0.85"/>
  <text x="847.5" y="342.0" font-size="6.5" fill="#2166AC">99.8%</text>
  <rect x="170" y="343.5" width="674.5" height="5.5" rx="1" fill="#D6604D" opacity="0.85"/>
  <text x="847.5" y="348.5" font-size="6.5" fill="#D6604D">99.8%</text>
  <rect x="170" y="350.0" width="674.5" height="5.5" rx="1" fill="#4DAF4A" opacity="0.85"/>
  <text x="847.5" y="355.0" font-size="6.5" fill="#4DAF4A">99.8%</text>
  <text x="165" y="371.0" font-size="8.5" fill="#222222" text-anchor="end">filesystem (3)</text>
  <rect x="170" y="359.0" width="614.9" height="5.5" rx="1" fill="#2166AC" opacity="0.85"/>
  <text x="787.9" y="364.0" font-size="6.5" fill="#2166AC">99.3%</text>
  <rect x="170" y="365.5" width="663.1" height="5.5" rx="1" fill="#D6604D" opacity="0.85"/>
  <text x="836.1" y="370.5" font-size="6.5" fill="#D6604D">99.7%</text>
  <rect x="170" y="372.0" width="710.0" height="5.5" rx="1" fill="#4DAF4A" opacity="0.85"/>
  <text x="165" y="393.0" font-size="8.5" fill="#222222" text-anchor="end">sequence‑utilities (3)</text>
  <rect x="170" y="381.0" width="663.1" height="5.5" rx="1" fill="#2166AC" opacity="0.85"/>
  <text x="836.1" y="386.0" font-size="6.5" fill="#2166AC">99.7%</text>
  <rect x="170" y="387.5" width="614.9" height="5.5" rx="1" fill="#D6604D" opacity="0.85"/>
  <text x="787.9" y="392.5" font-size="6.5" fill="#D6604D">99.3%</text>
  <rect x="170" y="394.0" width="614.9" height="5.5" rx="1" fill="#4DAF4A" opacity="0.85"/>
  <text x="787.9" y="399.0" font-size="6.5" fill="#4DAF4A">99.3%</text>
  <text x="165" y="415.0" font-size="8.5" fill="#222222" text-anchor="end">text‑processing (3)</text>
  <rect x="170" y="403.0" width="614.9" height="5.5" rx="1" fill="#2166AC" opacity="0.85"/>
  <text x="787.9" y="408.0" font-size="6.5" fill="#2166AC">99.3%</text>
  <rect x="170" y="409.5" width="710.0" height="5.5" rx="1" fill="#D6604D" opacity="0.85"/>
  <rect x="170" y="416.0" width="614.9" height="5.5" rx="1" fill="#4DAF4A" opacity="0.85"/>
  <text x="787.9" y="421.0" font-size="6.5" fill="#4DAF4A">99.3%</text>
  <text x="165" y="437.0" font-size="8.5" fill="#222222" text-anchor="end">variant‑annotation (3)</text>
  <rect x="170" y="425.0" width="614.9" height="5.5" rx="1" fill="#2166AC" opacity="0.85"/>
  <text x="787.9" y="430.0" font-size="6.5" fill="#2166AC">99.3%</text>
  <rect x="170" y="431.5" width="663.1" height="5.5" rx="1" fill="#D6604D" opacity="0.85"/>
  <text x="836.1" y="436.5" font-size="6.5" fill="#D6604D">99.7%</text>
  <rect x="170" y="438.0" width="710.0" height="5.5" rx="1" fill="#4DAF4A" opacity="0.85"/>
  <text x="165" y="459.0" font-size="8.5" fill="#222222" text-anchor="end">ai‑assistant (2)</text>
  <rect x="170" y="447.0" width="710.0" height="5.5" rx="1" fill="#2166AC" opacity="0.85"/>
  <rect x="170" y="453.5" width="639.0" height="5.5" rx="1" fill="#D6604D" opacity="0.85"/>
  <text x="812.0" y="458.5" font-size="6.5" fill="#D6604D">99.5%</text>
  <rect x="170" y="460.0" width="710.0" height="5.5" rx="1" fill="#4DAF4A" opacity="0.85"/>
  <text x="165" y="481.0" font-size="8.5" fill="#222222" text-anchor="end">comparative‑genomics (2)</text>
  <rect x="170" y="469.0" width="710.0" height="5.5" rx="1" fill="#2166AC" opacity="0.85"/>
  <rect x="170" y="475.5" width="497.0" height="5.5" rx="1" fill="#D6604D" opacity="0.85"/>
  <text x="670.0" y="480.5" font-size="6.5" fill="#D6604D">98.5%</text>
  <rect x="170" y="482.0" width="497.0" height="5.5" rx="1" fill="#4DAF4A" opacity="0.85"/>
  <text x="670.0" y="487.0" font-size="6.5" fill="#4DAF4A">98.5%</text>
  <text x="165" y="503.0" font-size="8.5" fill="#222222" text-anchor="end">containerization (2)</text>
  <rect x="170" y="491.0" width="710.0" height="5.5" rx="1" fill="#2166AC" opacity="0.85"/>
  <rect x="170" y="497.5" width="497.0" height="5.5" rx="1" fill="#D6604D" opacity="0.85"/>
  <text x="670.0" y="502.5" font-size="6.5" fill="#D6604D">98.5%</text>
  <rect x="170" y="504.0" width="497.0" height="5.5" rx="1" fill="#4DAF4A" opacity="0.85"/>
  <text x="670.0" y="509.0" font-size="6.5" fill="#4DAF4A">98.5%</text>
  <text x="165" y="525.0" font-size="8.5" fill="#222222" text-anchor="end">long‑read (2)</text>
  <rect x="170" y="513.0" width="710.0" height="5.5" rx="1" fill="#2166AC" opacity="0.85"/>
  <rect x="170" y="519.5" width="639.0" height="5.5" rx="1" fill="#D6604D" opacity="0.85"/>
  <text x="812.0" y="524.5" font-size="6.5" fill="#D6604D">99.5%</text>
  <rect x="170" y="526.0" width="639.0" height="5.5" rx="1" fill="#4DAF4A" opacity="0.85"/>
  <text x="812.0" y="531.0" font-size="6.5" fill="#4DAF4A">99.5%</text>
  <text x="165" y="547.0" font-size="8.5" fill="#222222" text-anchor="end">quality‑control (2)</text>
  <rect x="170" y="535.0" width="568.0" height="5.5" rx="1" fill="#2166AC" opacity="0.85"/>
  <text x="741.0" y="540.0" font-size="6.5" fill="#2166AC">99.0%</text>
  <rect x="170" y="541.5" width="497.0" height="5.5" rx="1" fill="#D6604D" opacity="0.85"/>
  <text x="670.0" y="546.5" font-size="6.5" fill="#D6604D">98.5%</text>
  <rect x="170" y="548.0" width="710.0" height="5.5" rx="1" fill="#4DAF4A" opacity="0.85"/>
  <text x="165" y="569.0" font-size="8.5" fill="#222222" text-anchor="end">scripting (2)</text>
  <rect x="170" y="557.0" width="639.0" height="5.5" rx="1" fill="#2166AC" opacity="0.85"/>
  <text x="812.0" y="562.0" font-size="6.5" fill="#2166AC">99.5%</text>
  <rect x="170" y="563.5" width="710.0" height="5.5" rx="1" fill="#D6604D" opacity="0.85"/>
  <rect x="170" y="570.0" width="710.0" height="5.5" rx="1" fill="#4DAF4A" opacity="0.85"/>
  <text x="165" y="591.0" font-size="8.5" fill="#222222" text-anchor="end">sequence‑comparison (2)</text>
  <rect x="170" y="579.0" width="639.0" height="5.5" rx="1" fill="#2166AC" opacity="0.85"/>
  <text x="812.0" y="584.0" font-size="6.5" fill="#2166AC">99.5%</text>
  <rect x="170" y="585.5" width="710.0" height="5.5" rx="1" fill="#D6604D" opacity="0.85"/>
  <rect x="170" y="592.0" width="639.0" height="5.5" rx="1" fill="#4DAF4A" opacity="0.85"/>
  <text x="812.0" y="597.0" font-size="6.5" fill="#4DAF4A">99.5%</text>
  <text x="165" y="613.0" font-size="8.5" fill="#222222" text-anchor="end">workflow‑manager (2)</text>
  <rect x="170" y="601.0" width="710.0" height="5.5" rx="1" fill="#2166AC" opacity="0.85"/>
  <rect x="170" y="607.5" width="710.0" height="5.5" rx="1" fill="#D6604D" opacity="0.85"/>
  <rect x="170" y="614.0" width="710.0" height="5.5" rx="1" fill="#4DAF4A" opacity="0.85"/>
  <text x="165" y="635.0" font-size="8.5" fill="#222222" text-anchor="end">assembly‑polishing (1)</text>
  <rect x="170" y="623.0" width="710.0" height="5.5" rx="1" fill="#2166AC" opacity="0.85"/>
  <rect x="170" y="629.5" width="710.0" height="5.5" rx="1" fill="#D6604D" opacity="0.85"/>
  <rect x="170" y="636.0" width="710.0" height="5.5" rx="1" fill="#4DAF4A" opacity="0.85"/>
  <text x="165" y="657.0" font-size="8.5" fill="#222222" text-anchor="end">functional‑annotation (1)</text>
  <rect x="170" y="645.0" width="568.0" height="5.5" rx="1" fill="#2166AC" opacity="0.85"/>
  <text x="741.0" y="650.0" font-size="6.5" fill="#2166AC">99.0%</text>
  <rect x="170" y="651.5" width="426.0" height="5.5" rx="1" fill="#D6604D" opacity="0.85"/>
  <text x="599.0" y="656.5" font-size="6.5" fill="#D6604D">98.0%</text>
  <rect x="170" y="658.0" width="710.0" height="5.5" rx="1" fill="#4DAF4A" opacity="0.85"/>
  <text x="165" y="679.0" font-size="8.5" fill="#222222" text-anchor="end">genome‑alignment (1)</text>
  <rect x="170" y="667.0" width="426.0" height="5.5" rx="1" fill="#2166AC" opacity="0.85"/>
  <text x="599.0" y="672.0" font-size="6.5" fill="#2166AC">98.0%</text>
  <rect x="170" y="673.5" width="710.0" height="5.5" rx="1" fill="#D6604D" opacity="0.85"/>
  <rect x="170" y="680.0" width="710.0" height="5.5" rx="1" fill="#4DAF4A" opacity="0.85"/>
  <text x="165" y="701.0" font-size="8.5" fill="#222222" text-anchor="end">genome‑annotation (1)</text>
  <rect x="170" y="689.0" width="710.0" height="5.5" rx="1" fill="#2166AC" opacity="0.85"/>
  <rect x="170" y="695.5" width="710.0" height="5.5" rx="1" fill="#D6604D" opacity="0.85"/>
  <rect x="170" y="702.0" width="710.0" height="5.5" rx="1" fill="#4DAF4A" opacity="0.85"/>
  <text x="165" y="723.0" font-size="8.5" fill="#222222" text-anchor="end">genomic‑arithmetic (1)</text>
  <rect x="170" y="711.0" width="710.0" height="5.5" rx="1" fill="#2166AC" opacity="0.85"/>
  <rect x="170" y="717.5" width="710.0" height="5.5" rx="1" fill="#D6604D" opacity="0.85"/>
  <rect x="170" y="724.0" width="426.0" height="5.5" rx="1" fill="#4DAF4A" opacity="0.85"/>
  <text x="599.0" y="729.0" font-size="6.5" fill="#4DAF4A">98.0%</text>
  <text x="165" y="745.0" font-size="8.5" fill="#222222" text-anchor="end">genomic‑intervals (1)</text>
  <rect x="170" y="733.0" width="710.0" height="5.5" rx="1" fill="#2166AC" opacity="0.85"/>
  <rect x="170" y="739.5" width="284.0" height="5.5" rx="1" fill="#D6604D" opacity="0.85"/>
  <text x="457.0" y="744.5" font-size="6.5" fill="#D6604D">97.0%</text>
  <rect x="170" y="746.0" width="710.0" height="5.5" rx="1" fill="#4DAF4A" opacity="0.85"/>
  <text x="165" y="767.0" font-size="8.5" fill="#222222" text-anchor="end">motif‑analysis (1)</text>
  <rect x="170" y="755.0" width="710.0" height="5.5" rx="1" fill="#2166AC" opacity="0.85"/>
  <rect x="170" y="761.5" width="710.0" height="5.5" rx="1" fill="#D6604D" opacity="0.85"/>
  <rect x="170" y="768.0" width="568.0" height="5.5" rx="1" fill="#4DAF4A" opacity="0.85"/>
  <text x="741.0" y="773.0" font-size="6.5" fill="#4DAF4A">99.0%</text>
  <text x="165" y="789.0" font-size="8.5" fill="#222222" text-anchor="end">programming (1)</text>
  <rect x="170" y="777.0" width="710.0" height="5.5" rx="1" fill="#2166AC" opacity="0.85"/>
  <rect x="170" y="783.5" width="710.0" height="5.5" rx="1" fill="#D6604D" opacity="0.85"/>
  <rect x="170" y="790.0" width="568.0" height="5.5" rx="1" fill="#4DAF4A" opacity="0.85"/>
  <text x="741.0" y="795.0" font-size="6.5" fill="#4DAF4A">99.0%</text>
  <text x="165" y="811.0" font-size="8.5" fill="#222222" text-anchor="end">runtime (1)</text>
  <rect x="170" y="799.0" width="710.0" height="5.5" rx="1" fill="#2166AC" opacity="0.85"/>
  <rect x="170" y="805.5" width="710.0" height="5.5" rx="1" fill="#D6604D" opacity="0.85"/>
  <rect x="170" y="812.0" width="710.0" height="5.5" rx="1" fill="#4DAF4A" opacity="0.85"/>
  <text x="165" y="833.0" font-size="8.5" fill="#222222" text-anchor="end">scientific‑computing (1)</text>
  <rect x="170" y="821.0" width="710.0" height="5.5" rx="1" fill="#2166AC" opacity="0.85"/>
  <rect x="170" y="827.5" width="710.0" height="5.5" rx="1" fill="#D6604D" opacity="0.85"/>
  <rect x="170" y="834.0" width="568.0" height="5.5" rx="1" fill="#4DAF4A" opacity="0.85"/>
  <text x="741.0" y="839.0" font-size="6.5" fill="#4DAF4A">99.0%</text>
  <text x="165" y="855.0" font-size="8.5" fill="#222222" text-anchor="end">sequence‑manipulation (1)</text>
  <rect x="170" y="843.0" width="710.0" height="5.5" rx="1" fill="#2166AC" opacity="0.85"/>
  <rect x="170" y="849.5" width="710.0" height="5.5" rx="1" fill="#D6604D" opacity="0.85"/>
  <rect x="170" y="856.0" width="710.0" height="5.5" rx="1" fill="#4DAF4A" opacity="0.85"/>
  <text x="165" y="877.0" font-size="8.5" fill="#222222" text-anchor="end">sequence‑processing (1)</text>
  <rect x="170" y="865.0" width="710.0" height="5.5" rx="1" fill="#2166AC" opacity="0.85"/>
  <rect x="170" y="871.5" width="710.0" height="5.5" rx="1" fill="#D6604D" opacity="0.85"/>
  <rect x="170" y="878.0" width="568.0" height="5.5" rx="1" fill="#4DAF4A" opacity="0.85"/>
  <text x="741.0" y="883.0" font-size="6.5" fill="#4DAF4A">99.0%</text>
  <text x="165" y="899.0" font-size="8.5" fill="#222222" text-anchor="end">sequence‑search (1)</text>
  <rect x="170" y="887.0" width="710.0" height="5.5" rx="1" fill="#2166AC" opacity="0.85"/>
  <rect x="170" y="893.5" width="710.0" height="5.5" rx="1" fill="#D6604D" opacity="0.85"/>
  <rect x="170" y="900.0" width="710.0" height="5.5" rx="1" fill="#4DAF4A" opacity="0.85"/>
  <text x="165" y="921.0" font-size="8.5" fill="#222222" text-anchor="end">statistical‑computing (1)</text>
  <rect x="170" y="909.0" width="710.0" height="5.5" rx="1" fill="#2166AC" opacity="0.85"/>
  <rect x="170" y="915.5" width="568.0" height="5.5" rx="1" fill="#D6604D" opacity="0.85"/>
  <text x="741.0" y="920.5" font-size="6.5" fill="#D6604D">99.0%</text>
  <rect x="170" y="922.0" width="568.0" height="5.5" rx="1" fill="#4DAF4A" opacity="0.85"/>
  <text x="741.0" y="927.0" font-size="6.5" fill="#4DAF4A">99.0%</text>
  <text x="165" y="943.0" font-size="8.5" fill="#222222" text-anchor="end">structural‑variants (1)</text>
  <rect x="170" y="931.0" width="710.0" height="5.5" rx="1" fill="#2166AC" opacity="0.85"/>
  <rect x="170" y="937.5" width="710.0" height="5.5" rx="1" fill="#D6604D" opacity="0.85"/>
  <rect x="170" y="944.0" width="568.0" height="5.5" rx="1" fill="#4DAF4A" opacity="0.85"/>
  <text x="741.0" y="949.0" font-size="6.5" fill="#4DAF4A">99.0%</text>
  <text x="165" y="965.0" font-size="8.5" fill="#222222" text-anchor="end">variant‑benchmarking (1)</text>
  <rect x="170" y="953.0" width="568.0" height="5.5" rx="1" fill="#2166AC" opacity="0.85"/>
  <text x="741.0" y="958.0" font-size="6.5" fill="#2166AC">99.0%</text>
  <rect x="170" y="959.5" width="710.0" height="5.5" rx="1" fill="#D6604D" opacity="0.85"/>
  <rect x="170" y="966.0" width="710.0" height="5.5" rx="1" fill="#4DAF4A" opacity="0.85"/>
  <text x="165" y="987.0" font-size="8.5" fill="#222222" text-anchor="end">version‑control (1)</text>
  <rect x="170" y="975.0" width="710.0" height="5.5" rx="1" fill="#2166AC" opacity="0.85"/>
  <rect x="170" y="981.5" width="710.0" height="5.5" rx="1" fill="#D6604D" opacity="0.85"/>
  <rect x="170" y="988.0" width="710.0" height="5.5" rx="1" fill="#4DAF4A" opacity="0.85"/>
  <rect x="385.0" y="1038.0" width="10" height="8" rx="1" fill="#2166AC"/>
  <text x="399.0" y="1045.0" font-size="10" fill="#555555">GPT-4o</text>
  <rect x="525.0" y="1038.0" width="10" height="8" rx="1" fill="#D6604D"/>
  <text x="539.0" y="1045.0" font-size="10" fill="#555555">Claude 3.5 Sonnet</text>
  <rect x="665.0" y="1038.0" width="10" height="8" rx="1" fill="#4DAF4A"/>
  <text x="679.0" y="1045.0" font-size="10" fill="#555555">GPT-4o-mini</text>
</svg>