<svg xmlns="http://www.w3.org/2000/svg" viewBox="0 0 900 500" font-family="'Helvetica Neue', Helvetica, Arial, sans-serif">
  <rect x="0" y="0" width="900" height="500" fill="white"/>
  <text x="450.0" y="18" font-size="12" font-weight="bold" fill="#333" text-anchor="middle">Supplementary Figure S2. Ablation analysis: contribution of documentation and skill components</text>
  <text x="450.0" y="34" font-size="9" fill="#666" text-anchor="middle">Exact-match rate (%) under four grounding conditions. Docs-only and skills-only rates estimated from component ablation (see Methods).</text>
  <line x1="80" y1="420.0" x2="860" y2="420.0" stroke="#ECECEC" stroke-width="0.5"/>
  <text x="72" y="423.0" font-size="8" fill="#333" text-anchor="end">0</text>
  <line x1="80" y1="328.8" x2="860" y2="328.8" stroke="#ECECEC" stroke-width="0.5"/>
  <text x="72" y="331.8" font-size="8" fill="#333" text-anchor="end">25</text>
  <line x1="80" y1="237.5" x2="860" y2="237.5" stroke="#ECECEC" stroke-width="0.5"/>
  <text x="72" y="240.5" font-size="8" fill="#333" text-anchor="end">50</text>
  <line x1="80" y1="146.2" x2="860" y2="146.2" stroke="#ECECEC" stroke-width="0.5"/>
  <text x="72" y="149.2" font-size="8" fill="#333" text-anchor="end">75</text>
  <line x1="80" y1="55.0" x2="860" y2="55.0" stroke="#ECECEC" stroke-width="0.5"/>
  <text x="72" y="58.0" font-size="8" fill="#333" text-anchor="end">100</text>
  <line x1="80" y1="55" x2="80" y2="420" stroke="#333" stroke-width="1"/>
  <line x1="80" y1="420" x2="860" y2="420" stroke="#333" stroke-width="1"/>
  <text x="18" y="237.5" font-size="10" fill="#333" text-anchor="middle" transform="rotate(-90, 18, 237.5)">Exact-match rate (%)</text>
  <text x="177.5" y="438" font-size="9" fill="#333" text-anchor="middle" font-weight="bold">Baseline</text>
  <rect x="105.2" y="149.6" width="45.5" height="270.4" rx="2" fill="#2166AC" opacity="0.85"/>
  <text x="128.0" y="145.6" font-size="7" fill="#2166AC" text-anchor="middle" font-weight="bold">74.1%</text>
  <rect x="154.8" y="181.9" width="45.5" height="238.1" rx="2" fill="#D6604D" opacity="0.85"/>
  <text x="177.5" y="177.9" font-size="7" fill="#D6604D" text-anchor="middle" font-weight="bold">65.2%</text>
  <rect x="204.2" y="228.8" width="45.5" height="191.2" rx="2" fill="#4DAF4A" opacity="0.85"/>
  <text x="227.0" y="224.8" font-size="7" fill="#4DAF4A" text-anchor="middle" font-weight="bold">52.4%</text>
  <text x="372.5" y="438" font-size="9" fill="#333" text-anchor="middle" font-weight="bold">Docs only</text>
  <rect x="300.2" y="81.3" width="45.5" height="338.7" rx="2" fill="#2166AC" opacity="0.85"/>
  <text x="323.0" y="77.3" font-size="7" fill="#2166AC" text-anchor="middle" font-weight="bold">92.8%</text>
  <rect x="349.8" y="94.4" width="45.5" height="325.6" rx="2" fill="#D6604D" opacity="0.85"/>
  <text x="372.5" y="90.4" font-size="7" fill="#D6604D" text-anchor="middle" font-weight="bold">89.2%</text>
  <rect x="399.2" y="107.6" width="45.5" height="312.4" rx="2" fill="#4DAF4A" opacity="0.85"/>
  <text x="422.0" y="103.6" font-size="7" fill="#4DAF4A" text-anchor="middle" font-weight="bold">85.6%</text>
  <text x="567.5" y="438" font-size="9" fill="#333" text-anchor="middle" font-weight="bold">Skills only</text>
  <rect x="495.2" y="111.6" width="45.5" height="308.4" rx="2" fill="#2166AC" opacity="0.85"/>
  <text x="518.0" y="107.6" font-size="7" fill="#2166AC" text-anchor="middle" font-weight="bold">84.5%</text>
  <rect x="544.8" y="127.6" width="45.5" height="292.4" rx="2" fill="#D6604D" opacity="0.85"/>
  <text x="567.5" y="123.6" font-size="7" fill="#D6604D" text-anchor="middle" font-weight="bold">80.1%</text>
  <rect x="594.2" y="152.8" width="45.5" height="267.2" rx="2" fill="#4DAF4A" opacity="0.85"/>
  <text x="617.0" y="148.8" font-size="7" fill="#4DAF4A" text-anchor="middle" font-weight="bold">73.2%</text>
  <text x="762.5" y="438" font-size="9" fill="#333" text-anchor="middle" font-weight="bold">Combined</text>
  <rect x="690.2" y="56.2" width="45.5" height="363.8" rx="2" fill="#2166AC" opacity="0.85"/>
  <text x="713.0" y="52.2" font-size="7" fill="#2166AC" text-anchor="middle" font-weight="bold">99.7%</text>
  <rect x="739.8" y="56.4" width="45.5" height="363.6" rx="2" fill="#D6604D" opacity="0.85"/>
  <text x="762.5" y="52.4" font-size="7" fill="#D6604D" text-anchor="middle" font-weight="bold">99.6%</text>
  <rect x="789.2" y="56.8" width="45.5" height="363.2" rx="2" fill="#4DAF4A" opacity="0.85"/>
  <text x="812.0" y="52.8" font-size="7" fill="#4DAF4A" text-anchor="middle" font-weight="bold">99.5%</text>
  <rect x="320.0" y="460" width="10" height="8" rx="1" fill="#2166AC"/>
  <text x="334.0" y="467" font-size="8" fill="#333">GPT-4o</text>
  <rect x="450.0" y="460" width="10" height="8" rx="1" fill="#D6604D"/>
  <text x="464.0" y="467" font-size="8" fill="#333">Claude 3.5 Sonnet</text>
  <rect x="580.0" y="460" width="10" height="8" rx="1" fill="#4DAF4A"/>
  <text x="594.0" y="467" font-size="8" fill="#333">GPT-4o-mini</text>
  <text x="470.0" y="485" font-size="8" fill="#666" text-anchor="middle" font-style="italic">Documentation grounding provides the larger share of improvement; skill augmentation adds 5–14 pp on top for near-ceiling accuracy.</text>
</svg>